<svg width="50" height="50" viewBox="0 0 50 50" fill="none" xmlns="http://www.w3.org/2000/svg">
<path d="M11.6412 0H10.235C10.0556 0 9.88543 0.0336665 9.72058 0.0815041C8.89692 0.320037 8.28809 1.10526 8.28809 2.04719V2.91154V5.12394V6.27499C8.28809 6.48887 8.32799 6.69095 8.38587 6.88443C8.63373 7.71553 9.3631 8.32218 10.235 8.32218H11.6412C12.7167 8.32218 13.5881 7.40573 13.5881 6.27499V5.12394V2.91154V2.04719C13.5881 0.91645 12.7167 0 11.6412 0Z" fill="#09AFF4" fill-opacity="0.6"/>
<path d="M39.3179 0H37.9118C36.8363 0 35.9648 0.91645 35.9648 2.04719V2.91154V5.12394V6.27499C35.9648 7.40573 36.8363 8.32218 37.9118 8.32218H39.3179C40.3934 8.32218 41.2649 7.40573 41.2649 6.27499V5.12394V2.91154V2.04719C41.2644 0.91645 40.393 0 39.3179 0Z" fill="#09AFF4" fill-opacity="0.6"/>
<path d="M46.5009 5.1239H43.0193V6.27495C43.0193 8.26766 41.3588 9.88874 39.318 9.88874H37.9118C35.8711 9.88874 34.2105 8.26766 34.2105 6.27495V5.1239H15.3421V6.27495C15.3421 8.26766 13.6816 9.88874 11.6408 9.88874H10.2346C8.19375 9.88874 6.53329 8.26766 6.53329 6.27495V5.1239H3.4996C1.56716 5.1239 0 6.43591 0 8.05346V47.0704C0 48.691 1.56707 50 3.4996 50H46.5005C48.4347 50 50 48.6907 50 47.0704V8.05387C50.0005 6.43632 48.4351 5.1239 46.5009 5.1239ZM45.4158 45.6996L4.45702 45.6855V14.2297H45.4158V45.6996Z" fill="#09AFF4" fill-opacity="0.6"/>
<path d="M29.3866 21.8102H40.1586C41.0936 21.8102 41.8498 20.9764 41.8498 19.9459C41.8498 18.9155 41.0932 18.0817 40.1586 18.0817H29.3866C28.4516 18.0817 27.6953 18.9155 27.6953 19.9459C27.6953 20.976 28.4515 21.8102 29.3866 21.8102Z" fill="#09AFF4" fill-opacity="0.6"/>
<path d="M29.3866 28.5441H40.1586C41.0936 28.5441 41.8498 27.7103 41.8498 26.6799C41.8498 25.6495 41.0932 24.8157 40.1586 24.8157H29.3866C28.4516 24.8157 27.6953 25.6495 27.6953 26.6799C27.6953 27.7103 28.4515 28.5441 29.3866 28.5441Z" fill="#09AFF4" fill-opacity="0.6"/>
<path d="M29.3866 35.2782H40.1586C41.0936 35.2782 41.8498 34.4443 41.8498 33.414C41.8498 32.3836 41.0932 31.5497 40.1586 31.5497H29.3866C28.4516 31.5497 27.6953 32.3836 27.6953 33.414C27.6953 34.4443 28.4515 35.2782 29.3866 35.2782Z" fill="#09AFF4" fill-opacity="0.6"/>
<path d="M29.3866 42.0127H40.1586C41.0936 42.0127 41.8498 41.1788 41.8498 40.1485C41.8498 39.118 41.0932 38.2842 40.1586 38.2842H29.3866C28.4516 38.2842 27.6953 39.118 27.6953 40.1485C27.6953 41.1788 28.4515 42.0127 29.3866 42.0127Z" fill="#09AFF4" fill-opacity="0.6"/>
<path d="M10.3075 21.8102H21.0795C22.0145 21.8102 22.7707 20.9764 22.7707 19.9459C22.7707 18.9155 22.014 18.0817 21.0795 18.0817H10.3075C9.37236 18.0817 8.61621 18.9155 8.61621 19.9459C8.6163 20.976 9.37236 21.8102 10.3075 21.8102Z" fill="#09AFF4" fill-opacity="0.6"/>
<path d="M10.3075 28.5441H21.0795C22.0145 28.5441 22.7707 27.7103 22.7707 26.6799C22.7707 25.6495 22.014 24.8157 21.0795 24.8157H10.3075C9.37236 24.8157 8.61621 25.6495 8.61621 26.6799C8.6163 27.7103 9.37236 28.5441 10.3075 28.5441Z" fill="#09AFF4" fill-opacity="0.6"/>
<path d="M10.3075 35.2782H21.0795C22.0145 35.2782 22.7707 34.4443 22.7707 33.414C22.7707 32.3836 22.014 31.5497 21.0795 31.5497H10.3075C9.37236 31.5497 8.61621 32.3836 8.61621 33.414C8.61621 34.4443 9.37236 35.2782 10.3075 35.2782Z" fill="#09AFF4" fill-opacity="0.6"/>
<path d="M10.3075 42.0127H21.0795C22.0145 42.0127 22.7707 41.1788 22.7707 40.1485C22.7707 39.118 22.014 38.2842 21.0795 38.2842H10.3075C9.37236 38.2842 8.61621 39.118 8.61621 40.1485C8.6163 41.1788 9.37236 42.0127 10.3075 42.0127Z" fill="#09AFF4" fill-opacity="0.6"/>
</svg>
