<svg width="60" height="60" viewBox="0 0 60 60" fill="none" xmlns="http://www.w3.org/2000/svg">
<path d="M17.8937 14.3396C15.6245 15.406 13.4269 15.0996 11.1737 13.4024C11.1077 13.3527 11.028 13.3246 10.9454 13.322C10.8628 13.3194 10.7815 13.3425 10.7125 13.388L17.8937 14.3396ZM17.8937 14.3396C17.9842 14.2968 18.0874 14.2895 18.183 14.3192M17.8937 14.3396L18.183 14.3192M18.183 14.3192C18.2786 14.3488 18.3597 14.4132 18.4101 14.4996L18.183 14.3192ZM19.1401 17.7667C19.0982 17.2951 19.0117 16.8292 18.882 16.3753L19.4429 16.344C19.3736 16.8047 19.2747 17.2854 19.1401 17.7667ZM8.72522 17.7662C8.61821 17.3061 8.5333 16.8655 8.4698 16.4449L9.02773 16.4945C8.8959 16.898 8.79137 17.3257 8.72522 17.7662ZM8.85947 18.3092L8.85945 18.3091L8.85947 18.3092Z" fill="#09AFF4" stroke="#09AFF4"/>
<mask id="path-2-inside-1_244_2698" fill="white">
<path d="M21.5508 41.5364H20.0108C19.9047 41.5364 19.803 41.4943 19.728 41.4193C19.653 41.3442 19.6108 41.2425 19.6108 41.1364C19.6108 41.0303 19.653 40.9286 19.728 40.8536C19.803 40.7786 19.9047 40.7364 20.0108 40.7364H21.5508C21.8998 40.7356 22.2343 40.5966 22.481 40.3498C22.7278 40.103 22.8668 39.7686 22.8676 39.4196V29.1628C22.8667 28.1244 22.4538 27.1288 21.7195 26.3946C20.9852 25.6603 19.9896 25.2474 18.9512 25.2464H17.6272C16.5213 25.9785 15.2243 26.3688 13.898 26.3688C12.5717 26.3688 11.2748 25.9785 10.1688 25.2464H8.83163C7.79323 25.2474 6.79764 25.6603 6.06337 26.3946C5.32911 27.1288 4.91619 28.1244 4.91523 29.1628V39.4196C4.91608 39.7686 5.05508 40.103 5.30185 40.3498C5.54861 40.5966 5.88306 40.7356 6.23203 40.7364H7.77163C7.87772 40.7364 7.97946 40.7786 8.05448 40.8536C8.12949 40.9286 8.17163 41.0303 8.17163 41.1364C8.17163 41.2425 8.12949 41.3442 8.05448 41.4193C7.97946 41.4943 7.87772 41.5364 7.77163 41.5364H6.23203C5.67088 41.5356 5.13296 41.3123 4.73617 40.9155C4.33937 40.5187 4.11608 39.9808 4.11523 39.4196V29.1628C4.11619 27.9122 4.6134 26.7132 5.49769 25.8289C6.38198 24.9446 7.58106 24.4474 8.83163 24.4464H10.2896C10.3695 24.4465 10.4475 24.4704 10.5136 24.5152C11.5077 25.2023 12.6877 25.5698 13.896 25.5688C15.1061 25.5668 16.2874 25.1992 17.2848 24.514C17.3508 24.4699 17.4283 24.4464 17.5076 24.4464H18.9512C20.2018 24.4474 21.4009 24.9446 22.2852 25.8289C23.1695 26.7132 23.6667 27.9122 23.6676 29.1628V39.4196C23.6668 39.9808 23.4435 40.5187 23.0467 40.9155C22.6499 41.3123 22.112 41.5356 21.5508 41.5364Z"/>
</mask>
<path d="M21.5508 41.5364H20.0108C19.9047 41.5364 19.803 41.4943 19.728 41.4193C19.653 41.3442 19.6108 41.2425 19.6108 41.1364C19.6108 41.0303 19.653 40.9286 19.728 40.8536C19.803 40.7786 19.9047 40.7364 20.0108 40.7364H21.5508C21.8998 40.7356 22.2343 40.5966 22.481 40.3498C22.7278 40.103 22.8668 39.7686 22.8676 39.4196V29.1628C22.8667 28.1244 22.4538 27.1288 21.7195 26.3946C20.9852 25.6603 19.9896 25.2474 18.9512 25.2464H17.6272C16.5213 25.9785 15.2243 26.3688 13.898 26.3688C12.5717 26.3688 11.2748 25.9785 10.1688 25.2464H8.83163C7.79323 25.2474 6.79764 25.6603 6.06337 26.3946C5.32911 27.1288 4.91619 28.1244 4.91523 29.1628V39.4196C4.91608 39.7686 5.05508 40.103 5.30185 40.3498C5.54861 40.5966 5.88306 40.7356 6.23203 40.7364H7.77163C7.87772 40.7364 7.97946 40.7786 8.05448 40.8536C8.12949 40.9286 8.17163 41.0303 8.17163 41.1364C8.17163 41.2425 8.12949 41.3442 8.05448 41.4193C7.97946 41.4943 7.87772 41.5364 7.77163 41.5364H6.23203C5.67088 41.5356 5.13296 41.3123 4.73617 40.9155C4.33937 40.5187 4.11608 39.9808 4.11523 39.4196V29.1628C4.11619 27.9122 4.6134 26.7132 5.49769 25.8289C6.38198 24.9446 7.58106 24.4474 8.83163 24.4464H10.2896C10.3695 24.4465 10.4475 24.4704 10.5136 24.5152C11.5077 25.2023 12.6877 25.5698 13.896 25.5688C15.1061 25.5668 16.2874 25.1992 17.2848 24.514C17.3508 24.4699 17.4283 24.4464 17.5076 24.4464H18.9512C20.2018 24.4474 21.4009 24.9446 22.2852 25.8289C23.1695 26.7132 23.6667 27.9122 23.6676 29.1628V39.4196C23.6668 39.9808 23.4435 40.5187 23.0467 40.9155C22.6499 41.3123 22.112 41.5356 21.5508 41.5364Z" fill="#09AFF4"/>
<path d="M21.5508 41.5364V42.5364L21.5523 42.5364L21.5508 41.5364ZM21.5508 40.7364V41.7364L21.5533 41.7364L21.5508 40.7364ZM22.8676 39.4196L23.8676 39.422V39.4196H22.8676ZM22.8676 29.1628H23.8676V29.1619L22.8676 29.1628ZM18.9512 25.2464L18.9522 24.2464H18.9512V25.2464ZM17.6272 25.2464V24.2464H17.3263L17.0753 24.4125L17.6272 25.2464ZM10.1688 25.2464L10.7208 24.4125L10.4698 24.2464H10.1688V25.2464ZM8.83163 25.2464V24.2464L8.83072 24.2464L8.83163 25.2464ZM4.91523 29.1628L3.91523 29.1619V29.1628H4.91523ZM4.91523 39.4196H3.91523L3.91524 39.422L4.91523 39.4196ZM6.23203 40.7364L6.22961 41.7364H6.23203V40.7364ZM8.05448 40.8536L8.76158 40.1465L8.05448 40.8536ZM8.05448 41.4193L8.76158 42.1264L8.05448 41.4193ZM6.23203 41.5364L6.23053 42.5364H6.23203V41.5364ZM4.11523 39.4196H3.11523L3.11524 39.4211L4.11523 39.4196ZM4.11523 29.1628L3.11523 29.162V29.1628H4.11523ZM8.83163 24.4464V23.4464L8.83087 23.4464L8.83163 24.4464ZM10.2896 24.4464L10.2904 23.4464H10.2896V24.4464ZM10.5136 24.5152L11.0822 23.6925L11.0744 23.6872L10.5136 24.5152ZM13.896 25.5688L13.8969 26.5688L13.8977 26.5688L13.896 25.5688ZM17.2848 24.514L16.7285 23.683L16.7186 23.6897L17.2848 24.514ZM17.5076 24.4464L17.5069 25.4464H17.5076V24.4464ZM18.9512 24.4464L18.952 23.4464H18.9512V24.4464ZM23.6676 29.1628H24.6676V29.162L23.6676 29.1628ZM23.6676 39.4196L24.6676 39.4211V39.4196H23.6676ZM21.5508 40.5364H20.0108V42.5364H21.5508V40.5364ZM20.0108 40.5364C20.17 40.5364 20.3226 40.5996 20.4351 40.7121L19.0209 42.1264C19.2834 42.3889 19.6395 42.5364 20.0108 42.5364V40.5364ZM20.4351 40.7121C20.5476 40.8247 20.6108 40.9773 20.6108 41.1364H18.6108C18.6108 41.5077 18.7583 41.8638 19.0209 42.1264L20.4351 40.7121ZM20.6108 41.1364C20.6108 41.2955 20.5476 41.4482 20.4351 41.5607L19.0209 40.1465C18.7583 40.409 18.6108 40.7651 18.6108 41.1364H20.6108ZM20.4351 41.5607C20.3226 41.6732 20.17 41.7364 20.0108 41.7364V39.7364C19.6395 39.7364 19.2834 39.8839 19.0209 40.1465L20.4351 41.5607ZM20.0108 41.7364H21.5508V39.7364H20.0108V41.7364ZM21.5533 41.7364C22.1666 41.7349 22.7544 41.4906 23.1881 41.0569L21.7739 39.6427C21.7141 39.7025 21.633 39.7362 21.5484 39.7364L21.5533 41.7364ZM23.1881 41.0569C23.6218 40.6232 23.8661 40.0354 23.8676 39.422L21.8676 39.4172C21.8674 39.5018 21.8337 39.5829 21.7739 39.6427L23.1881 41.0569ZM23.8676 39.4196V29.1628H21.8676V39.4196H23.8676ZM23.8676 29.1619C23.8664 27.8586 23.3482 26.609 22.4266 25.6874L21.0124 27.1017C21.5593 27.6486 21.8669 28.3902 21.8676 29.1637L23.8676 29.1619ZM22.4266 25.6874C21.505 24.7659 20.2555 24.2476 18.9522 24.2464L18.9503 26.2464C19.7238 26.2471 20.4654 26.5547 21.0124 27.1017L22.4266 25.6874ZM18.9512 24.2464H17.6272V26.2464H18.9512V24.2464ZM17.0753 24.4125C16.133 25.0362 15.028 25.3688 13.898 25.3688V27.3688C15.4206 27.3688 16.9095 26.9207 18.1792 26.0803L17.0753 24.4125ZM13.898 25.3688C12.768 25.3688 11.6631 25.0362 10.7208 24.4125L9.61688 26.0803C10.8865 26.9207 12.3754 27.3688 13.898 27.3688V25.3688ZM10.1688 24.2464H8.83163V26.2464H10.1688V24.2464ZM8.83072 24.2464C7.52742 24.2476 6.27784 24.7659 5.35627 25.6874L6.77048 27.1017C7.31743 26.5547 8.05905 26.2471 8.83255 26.2464L8.83072 24.2464ZM5.35627 25.6874C4.4347 26.609 3.91643 27.8586 3.91523 29.1619L5.91523 29.1637C5.91594 28.3902 6.22353 27.6486 6.77048 27.1017L5.35627 25.6874ZM3.91523 29.1628V39.4196H5.91523V29.1628H3.91523ZM3.91524 39.422C3.91672 40.0354 4.16104 40.6232 4.59474 41.0569L6.00896 39.6427C5.94913 39.5829 5.91544 39.5018 5.91523 39.4172L3.91524 39.422ZM4.59474 41.0569C5.02845 41.4906 5.61625 41.7349 6.22961 41.7364L6.23446 39.7364C6.14986 39.7362 6.06878 39.7025 6.00896 39.6427L4.59474 41.0569ZM6.23203 41.7364H7.77163V39.7364H6.23203V41.7364ZM7.77163 41.7364C7.61251 41.7364 7.45989 41.6732 7.34737 41.5607L8.76158 40.1465C8.49903 39.8839 8.14294 39.7364 7.77163 39.7364V41.7364ZM7.34737 41.5607C7.23485 41.4482 7.17163 41.2955 7.17163 41.1364H9.17163C9.17163 40.7651 9.02413 40.409 8.76158 40.1465L7.34737 41.5607ZM7.17163 41.1364C7.17163 40.9773 7.23486 40.8247 7.34737 40.7121L8.76158 42.1264C9.02413 41.8638 9.17163 41.5077 9.17163 41.1364H7.17163ZM7.34737 40.7121C7.45988 40.5996 7.61249 40.5364 7.77163 40.5364V42.5364C8.14296 42.5364 8.49905 42.3889 8.76158 42.1264L7.34737 40.7121ZM7.77163 40.5364H6.23203V42.5364H7.77163V40.5364ZM6.23354 40.5364C5.93709 40.536 5.6529 40.418 5.44327 40.2084L4.02906 41.6226C4.61302 42.2065 5.40468 42.5352 6.23053 42.5364L6.23354 40.5364ZM5.44327 40.2084C5.23365 39.9987 5.11568 39.7146 5.11523 39.4181L3.11524 39.4211C3.11648 40.247 3.4451 41.0386 4.02906 41.6226L5.44327 40.2084ZM5.11523 39.4196V29.1628H3.11523V39.4196H5.11523ZM5.11523 29.1636C5.11599 28.178 5.50786 27.2329 6.2048 26.536L4.79058 25.1218C3.71894 26.1934 3.11639 27.6465 3.11523 29.162L5.11523 29.1636ZM6.2048 26.536C6.90174 25.839 7.84677 25.4472 8.8324 25.4464L8.83087 23.4464C7.31535 23.4476 5.86222 24.0501 4.79058 25.1218L6.2048 26.536ZM8.83163 25.4464H10.2896V23.4464H8.83163V25.4464ZM10.2889 25.4464C10.1691 25.4463 10.0521 25.4104 9.95291 25.3432L11.0744 23.6872C10.8429 23.5305 10.5699 23.4466 10.2904 23.4464L10.2889 25.4464ZM9.94507 25.3378C11.1065 26.1406 12.4851 26.57 13.8969 26.5688L13.8952 24.5688C12.8902 24.5696 11.9089 24.264 11.0822 23.6926L9.94507 25.3378ZM13.8977 26.5688C15.3094 26.5665 16.6874 26.1376 17.851 25.3383L16.7186 23.6897C15.8874 24.2608 14.9029 24.5672 13.8944 24.5688L13.8977 26.5688ZM17.8411 25.345C17.7422 25.4112 17.6259 25.4465 17.5069 25.4464L17.5084 23.4464C17.2307 23.4462 16.9593 23.5286 16.7286 23.683L17.8411 25.345ZM17.5076 25.4464H18.9512V23.4464H17.5076V25.4464ZM18.9505 25.4464C19.9361 25.4472 20.8811 25.839 21.5781 26.536L22.9923 25.1218C21.9206 24.0501 20.4675 23.4476 18.952 23.4464L18.9505 25.4464ZM21.5781 26.536C22.275 27.2329 22.6669 28.1779 22.6676 29.1636L24.6676 29.162C24.6665 27.6465 24.0639 26.1934 22.9923 25.1218L21.5781 26.536ZM22.6676 29.1628V39.4196H24.6676V29.1628H22.6676ZM22.6676 39.4181C22.6672 39.7146 22.5492 39.9987 22.3396 40.2084L23.7538 41.6226C24.3378 41.0386 24.6664 40.247 24.6676 39.4211L22.6676 39.4181ZM22.3396 40.2084C22.13 40.418 21.8458 40.536 21.5493 40.5364L21.5523 42.5364C22.3782 42.5352 23.1699 42.2065 23.7538 41.6226L22.3396 40.2084Z" fill="#09AFF4" mask="url(#path-2-inside-1_244_2698)"/>
<mask id="path-4-inside-2_244_2698" fill="white">
<path d="M13.9139 24.4144C11.2555 24.4144 8.97473 21.942 8.36913 18.402C8.35937 18.3499 8.36008 18.2963 8.37122 18.2444C8.38235 18.1926 8.40369 18.1435 8.43399 18.0999C8.46428 18.0564 8.50294 18.0193 8.54769 17.9909C8.59245 17.9624 8.64242 17.9431 8.6947 17.9342C8.74697 17.9252 8.80051 17.9267 8.85219 17.9387C8.90387 17.9506 8.95267 17.9727 8.99574 18.0036C9.03881 18.0346 9.07529 18.0738 9.10307 18.1189C9.13084 18.1641 9.14935 18.2144 9.15753 18.2668C9.69633 21.4156 11.6527 23.6144 13.9139 23.6144C16.1751 23.6144 18.1347 21.4144 18.6739 18.2668C18.6812 18.2136 18.699 18.1624 18.7265 18.1162C18.7539 18.0701 18.7904 18.0299 18.8337 17.9981C18.877 17.9664 18.9262 17.9436 18.9785 17.9313C19.0308 17.919 19.085 17.9173 19.1379 17.9264C19.1909 17.9355 19.2414 17.9551 19.2866 17.9842C19.3318 18.0132 19.3706 18.0511 19.4009 18.0954C19.4311 18.1398 19.4521 18.1898 19.4626 18.2425C19.4731 18.2952 19.4728 18.3494 19.4619 18.402C18.8563 21.942 16.5747 24.4144 13.9139 24.4144Z"/>
</mask>
<path d="M13.9139 24.4144C11.2555 24.4144 8.97473 21.942 8.36913 18.402C8.35937 18.3499 8.36008 18.2963 8.37122 18.2444C8.38235 18.1926 8.40369 18.1435 8.43399 18.0999C8.46428 18.0564 8.50294 18.0193 8.54769 17.9909C8.59245 17.9624 8.64242 17.9431 8.6947 17.9342C8.74697 17.9252 8.80051 17.9267 8.85219 17.9387C8.90387 17.9506 8.95267 17.9727 8.99574 18.0036C9.03881 18.0346 9.07529 18.0738 9.10307 18.1189C9.13084 18.1641 9.14935 18.2144 9.15753 18.2668C9.69633 21.4156 11.6527 23.6144 13.9139 23.6144C16.1751 23.6144 18.1347 21.4144 18.6739 18.2668C18.6812 18.2136 18.699 18.1624 18.7265 18.1162C18.7539 18.0701 18.7904 18.0299 18.8337 17.9981C18.877 17.9664 18.9262 17.9436 18.9785 17.9313C19.0308 17.919 19.085 17.9173 19.1379 17.9264C19.1909 17.9355 19.2414 17.9551 19.2866 17.9842C19.3318 18.0132 19.3706 18.0511 19.4009 18.0954C19.4311 18.1398 19.4521 18.1898 19.4626 18.2425C19.4731 18.2952 19.4728 18.3494 19.4619 18.402C18.8563 21.942 16.5747 24.4144 13.9139 24.4144Z" fill="#09AFF4"/>
<path d="M8.36913 18.402L9.35481 18.2334L9.3535 18.2257L9.35207 18.2181L8.36913 18.402ZM9.15753 18.2668L8.16947 18.4209L8.17061 18.4282L8.17185 18.4355L9.15753 18.2668ZM18.6739 18.2668L19.6596 18.4356L19.6625 18.4186L19.6648 18.4015L18.6739 18.2668ZM19.4619 18.402L18.4828 18.1987L18.4792 18.216L18.4762 18.2334L19.4619 18.402ZM13.9139 23.4144C11.9442 23.4144 9.91768 21.5236 9.35481 18.2334L7.38345 18.5706C8.03178 22.3604 10.5668 25.4144 13.9139 25.4144V23.4144ZM9.35207 18.2181C9.3667 18.2963 9.36564 18.3766 9.34893 18.4544L7.39351 18.0345C7.35453 18.216 7.35205 18.4034 7.38618 18.5859L9.35207 18.2181ZM9.34893 18.4544C9.33223 18.5322 9.30022 18.6059 9.25478 18.6712L7.6132 17.5287C7.50716 17.6811 7.43248 17.853 7.39351 18.0345L9.34893 18.4544ZM9.25478 18.6712C9.20933 18.7365 9.15136 18.7921 9.08422 18.8348L8.01117 17.147C7.85452 17.2466 7.71924 17.3763 7.6132 17.5287L9.25478 18.6712ZM9.08422 18.8348C9.01709 18.8774 8.94214 18.9063 8.86372 18.9198L8.52568 16.9486C8.34271 16.9799 8.16781 17.0474 8.01117 17.147L9.08422 18.8348ZM8.86372 18.9198C8.7853 18.9332 8.70499 18.931 8.62748 18.9131L9.0769 16.9642C8.89602 16.9225 8.70865 16.9172 8.52568 16.9486L8.86372 18.9198ZM8.62748 18.9131C8.54997 18.8952 8.47678 18.8621 8.41216 18.8157L9.57931 17.1915C9.42856 17.0832 9.25777 17.0059 9.0769 16.9642L8.62748 18.9131ZM8.41216 18.8157C8.34755 18.7692 8.29282 18.7104 8.25116 18.6426L9.95497 17.5952C9.85775 17.4371 9.73006 17.2999 9.57931 17.1915L8.41216 18.8157ZM8.25116 18.6426C8.2095 18.5749 8.18173 18.4995 8.16947 18.4209L10.1456 18.1127C10.117 17.9293 10.0522 17.7534 9.95497 17.5952L8.25116 18.6426ZM8.17185 18.4355C8.7473 21.7984 10.9379 24.6144 13.9139 24.6144V22.6144C12.3676 22.6144 10.6454 21.0328 10.1432 18.0981L8.17185 18.4355ZM13.9139 24.6144C16.8894 24.6144 19.0836 21.798 19.6596 18.4356L17.6883 18.0979C17.1859 21.0308 15.4608 22.6144 13.9139 22.6144V24.6144ZM19.6648 18.4015C19.654 18.4813 19.6272 18.5581 19.586 18.6273L17.867 17.6051C17.7709 17.7666 17.7083 17.9459 17.683 18.1321L19.6648 18.4015ZM19.586 18.6273C19.5448 18.6966 19.4901 18.7568 19.4252 18.8044L18.2422 17.1918C18.0906 17.303 17.963 17.4435 17.867 17.6051L19.586 18.6273ZM19.4252 18.8044C19.3602 18.8521 19.2863 18.8862 19.2079 18.9046L18.7491 16.958C18.5661 17.0011 18.3938 17.0806 18.2422 17.1918L19.4252 18.8044ZM19.2079 18.9046C19.1295 18.9231 19.0482 18.9256 18.9688 18.912L19.307 16.9408C19.1218 16.909 18.932 16.9149 18.7491 16.958L19.2079 18.9046ZM18.9688 18.912C18.8894 18.8984 18.8136 18.8689 18.7458 18.8254L19.8273 17.143C19.6692 17.0414 19.4923 16.9726 19.307 16.9408L18.9688 18.912ZM18.7458 18.8254C18.6781 18.7818 18.6198 18.725 18.5744 18.6585L20.2273 17.5324C20.1215 17.3771 19.9855 17.2446 19.8273 17.143L18.7458 18.8254ZM18.5744 18.6585C18.5291 18.5919 18.4976 18.5169 18.4818 18.4379L20.4433 18.0471C20.4066 17.8628 20.3331 17.6877 20.2273 17.5324L18.5744 18.6585ZM18.4818 18.4379C18.4661 18.3589 18.4664 18.2775 18.4828 18.1987L20.441 18.6053C20.4793 18.4213 20.48 18.2315 20.4433 18.0471L18.4818 18.4379ZM18.4762 18.2334C17.9135 21.5231 15.8864 23.4144 13.9139 23.4144V25.4144C17.2631 25.4144 19.7992 22.3609 20.4476 18.5706L18.4762 18.2334Z" fill="#09AFF4" mask="url(#path-4-inside-2_244_2698)"/>
<path d="M13.9801 41.1367C13.9801 41.1369 13.9801 41.1371 13.9801 41.1372L13.9801 41.1367ZM13.9801 41.1367H13.8801H13.7801H13.4801M13.9801 41.1367L13.9801 41.1359L13.8807 41.1361L13.8801 41.1361L13.8794 41.1361L13.4801 41.1367M13.4801 41.1367L13.4989 52.5799L14.2801 41.1367C14.2801 41.0307 14.2379 40.9289 14.1629 40.8539C14.0879 40.7789 13.9862 40.7367 13.8801 40.7367C13.774 40.7367 13.6722 40.7789 13.5972 40.8539C13.5222 40.9289 13.4801 41.0307 13.4801 41.1367Z" fill="#09AFF4" stroke="#09AFF4"/>
<path d="M13.9805 41.1368C13.9805 41.1369 13.9805 41.1371 13.9805 41.1373L13.9805 41.1368ZM13.9805 41.1368H13.8805L13.8798 41.136L13.8805 41.136L13.8812 41.136L13.9805 41.1359L13.9805 41.1368ZM20.1121 29.8788C20.1121 29.8788 20.1121 29.8788 20.1121 29.8789V29.8788ZM20.1121 29.8788L20.0121 29.8788L19.9121 29.8788H19.6121L20.0119 29.8786L20.0121 29.8786L20.0122 29.8786L20.1121 29.8786V29.8788Z" fill="#09AFF4" stroke="#09AFF4"/>
<path d="M10.2888 24.8455L10.2888 24.8455L10.2888 24.8455ZM10.2888 24.8455L10.2888 24.8455L10.2888 24.8455ZM9.95957 24.9956L10.2886 24.8456L9.95957 24.9956ZM10.3642 24.9111C10.3642 24.9111 10.3642 24.9111 10.3642 24.9111L10.3642 24.9111Z" fill="#09AFF4" stroke="#09AFF4"/>
<mask id="path-9-inside-3_244_2698" fill="white">
<path d="M17.539 25.2456C17.4817 25.2456 17.4252 25.2333 17.373 25.2096C17.3209 25.1858 17.2746 25.1512 17.237 25.108L15.893 23.5624C15.8585 23.5227 15.8322 23.4767 15.8156 23.4268C15.7989 23.377 15.7922 23.3244 15.7959 23.272C15.7996 23.2196 15.8135 23.1684 15.837 23.1214C15.8605 23.0744 15.8929 23.0324 15.9326 22.998C15.9723 22.9635 16.0183 22.9372 16.0681 22.9205C16.118 22.9039 16.1706 22.8972 16.223 22.9009C16.2754 22.9046 16.3266 22.9185 16.3736 22.942C16.4206 22.9654 16.4625 22.9979 16.497 23.0376L17.841 24.5832C17.8913 24.6411 17.924 24.7123 17.935 24.7882C17.946 24.8642 17.9349 24.9417 17.903 25.0115C17.8712 25.0813 17.82 25.1405 17.7554 25.182C17.6909 25.2235 17.6157 25.2456 17.539 25.2456Z"/>
</mask>
<path d="M17.539 25.2456C17.4817 25.2456 17.4252 25.2333 17.373 25.2096C17.3209 25.1858 17.2746 25.1512 17.237 25.108L15.893 23.5624C15.8585 23.5227 15.8322 23.4767 15.8156 23.4268C15.7989 23.377 15.7922 23.3244 15.7959 23.272C15.7996 23.2196 15.8135 23.1684 15.837 23.1214C15.8605 23.0744 15.8929 23.0324 15.9326 22.998C15.9723 22.9635 16.0183 22.9372 16.0681 22.9205C16.118 22.9039 16.1706 22.8972 16.223 22.9009C16.2754 22.9046 16.3266 22.9185 16.3736 22.942C16.4206 22.9654 16.4625 22.9979 16.497 23.0376L17.841 24.5832C17.8913 24.6411 17.924 24.7123 17.935 24.7882C17.946 24.8642 17.9349 24.9417 17.903 25.0115C17.8712 25.0813 17.82 25.1405 17.7554 25.182C17.6909 25.2235 17.6157 25.2456 17.539 25.2456Z" fill="#09AFF4"/>
<path d="M17.539 25.2456L17.5392 24.2456L17.5388 24.2456L17.539 25.2456ZM17.237 25.108L17.9918 24.452L17.9916 24.4518L17.237 25.108ZM15.893 23.5624L15.1381 24.2183L15.1384 24.2186L15.893 23.5624ZM16.497 23.0376L15.7421 23.6935L15.7424 23.6938L16.497 23.0376ZM17.841 24.5832L18.5958 23.9272L18.5956 23.927L17.841 24.5832ZM17.5388 24.2456C17.6246 24.2456 17.7095 24.264 17.7877 24.2996L16.9584 26.1196C17.1408 26.2027 17.3389 26.2456 17.5392 26.2456L17.5388 24.2456ZM17.7877 24.2996C17.8658 24.3352 17.9354 24.3872 17.9918 24.452L16.4822 25.764C16.6137 25.9152 16.7761 26.0365 16.9584 26.1196L17.7877 24.2996ZM17.9916 24.4518L16.6476 22.9062L15.1384 24.2186L16.4824 25.7642L17.9916 24.4518ZM16.6479 22.9065C16.6995 22.966 16.739 23.035 16.764 23.1097L14.8672 23.7439C14.9255 23.9183 15.0175 24.0795 15.1381 24.2183L16.6479 22.9065ZM16.764 23.1097C16.7889 23.1845 16.799 23.2634 16.7935 23.342L14.7984 23.202C14.7855 23.3854 14.8089 23.5695 14.8672 23.7439L16.764 23.1097ZM16.7935 23.342C16.7879 23.4206 16.767 23.4973 16.7318 23.5678L14.9422 22.675C14.8601 22.8395 14.8112 23.0186 14.7984 23.202L16.7935 23.342ZM16.7318 23.5678C16.6967 23.6383 16.648 23.7012 16.5885 23.7528L15.2767 22.2431C15.1379 22.3637 15.0242 22.5105 14.9422 22.675L16.7318 23.5678ZM16.5885 23.7528C16.529 23.8045 16.4599 23.844 16.3852 23.8689L15.7511 21.9721C15.5767 22.0304 15.4155 22.1225 15.2767 22.2431L16.5885 23.7528ZM16.3852 23.8689C16.3105 23.8939 16.2316 23.9039 16.153 23.8984L16.293 21.9033C16.1096 21.8905 15.9254 21.9138 15.7511 21.9721L16.3852 23.8689ZM16.153 23.8984C16.0744 23.8929 15.9977 23.872 15.9272 23.8368L16.82 22.0471C16.6555 21.9651 16.4764 21.9162 16.293 21.9033L16.153 23.8984ZM15.9272 23.8368C15.8567 23.8016 15.7938 23.7529 15.7421 23.6935L17.2519 22.3817C17.1313 22.2429 16.9845 22.1292 16.82 22.0471L15.9272 23.8368ZM15.7424 23.6938L17.0864 25.2394L18.5956 23.927L17.2516 22.3814L15.7424 23.6938ZM17.0862 25.2392C17.0107 25.1523 16.9618 25.0455 16.9453 24.9316L18.9246 24.6448C18.8861 24.379 18.772 24.1299 18.5958 23.9272L17.0862 25.2392ZM16.9453 24.9316C16.9288 24.8177 16.9454 24.7014 16.9932 24.5967L18.8129 25.4263C18.9244 25.182 18.9631 24.9107 18.9246 24.6448L16.9453 24.9316ZM16.9932 24.5967C17.0409 24.4919 17.1178 24.4031 17.2146 24.3409L18.2962 26.0232C18.5221 25.8779 18.7015 25.6707 18.8129 25.4263L16.9932 24.5967ZM17.2146 24.3409C17.3114 24.2786 17.4241 24.2455 17.5392 24.2456L17.5388 26.2456C17.8073 26.2456 18.0703 26.1684 18.2962 26.0232L17.2146 24.3409Z" fill="#09AFF4" mask="url(#path-9-inside-3_244_2698)"/>
<mask id="path-11-inside-4_244_2698" fill="white">
<path d="M55.4844 32.2868H23.268C23.1619 32.2868 23.0601 32.2446 22.9851 32.1696C22.9101 32.0946 22.868 31.9929 22.868 31.8868C22.868 31.7807 22.9101 31.6789 22.9851 31.6039C23.0601 31.5289 23.1619 31.4868 23.268 31.4868H55.0844V4.75557H16.2844V9.36397C16.2844 9.47005 16.2422 9.5718 16.1672 9.64681C16.0922 9.72182 15.9905 9.76397 15.8844 9.76397C15.7783 9.76397 15.6765 9.72182 15.6015 9.64681C15.5265 9.5718 15.4844 9.47005 15.4844 9.36397V4.35557C15.4844 4.24948 15.5265 4.14774 15.6015 4.07272C15.6765 3.99771 15.7783 3.95557 15.8844 3.95557H55.4844C55.5905 3.95557 55.6922 3.99771 55.7672 4.07272C55.8422 4.14774 55.8844 4.24948 55.8844 4.35557V31.8868C55.8844 31.9929 55.8422 32.0946 55.7672 32.1696C55.6922 32.2446 55.5905 32.2868 55.4844 32.2868Z"/>
</mask>
<path d="M55.4844 32.2868H23.268C23.1619 32.2868 23.0601 32.2446 22.9851 32.1696C22.9101 32.0946 22.868 31.9929 22.868 31.8868C22.868 31.7807 22.9101 31.6789 22.9851 31.6039C23.0601 31.5289 23.1619 31.4868 23.268 31.4868H55.0844V4.75557H16.2844V9.36397C16.2844 9.47005 16.2422 9.5718 16.1672 9.64681C16.0922 9.72182 15.9905 9.76397 15.8844 9.76397C15.7783 9.76397 15.6765 9.72182 15.6015 9.64681C15.5265 9.5718 15.4844 9.47005 15.4844 9.36397V4.35557C15.4844 4.24948 15.5265 4.14774 15.6015 4.07272C15.6765 3.99771 15.7783 3.95557 15.8844 3.95557H55.4844C55.5905 3.95557 55.6922 3.99771 55.7672 4.07272C55.8422 4.14774 55.8844 4.24948 55.8844 4.35557V31.8868C55.8844 31.9929 55.8422 32.0946 55.7672 32.1696C55.6922 32.2446 55.5905 32.2868 55.4844 32.2868Z" fill="#09AFF4"/>
<path d="M55.0844 31.4868V32.4868H56.0844V31.4868H55.0844ZM55.0844 4.75557H56.0844V3.75557H55.0844V4.75557ZM16.2844 4.75557V3.75557H15.2844V4.75557H16.2844ZM55.4844 31.2868H23.268V33.2868H55.4844V31.2868ZM23.268 31.2868C23.4271 31.2868 23.5797 31.35 23.6922 31.4625L22.278 32.8767C22.5406 33.1393 22.8967 33.2868 23.268 33.2868V31.2868ZM23.6922 31.4625C23.8048 31.575 23.868 31.7276 23.868 31.8868H21.868C21.868 32.2581 22.0155 32.6142 22.278 32.8767L23.6922 31.4625ZM23.868 31.8868C23.868 32.0459 23.8048 32.1985 23.6922 32.311L22.278 30.8968C22.0155 31.1594 21.868 31.5155 21.868 31.8868H23.868ZM23.6922 32.311C23.5797 32.4236 23.4271 32.4868 23.268 32.4868V30.4868C22.8967 30.4868 22.5406 30.6343 22.278 30.8968L23.6922 32.311ZM23.268 32.4868H55.0844V30.4868H23.268V32.4868ZM56.0844 31.4868V4.75557H54.0844V31.4868H56.0844ZM55.0844 3.75557H16.2844V5.75557H55.0844V3.75557ZM15.2844 4.75557V9.36397H17.2844V4.75557H15.2844ZM15.2844 9.36397C15.2844 9.20484 15.3476 9.05223 15.4601 8.9397L16.8743 10.3539C17.1369 10.0914 17.2844 9.73527 17.2844 9.36397H15.2844ZM15.4601 8.9397C15.5726 8.82718 15.7252 8.76397 15.8844 8.76397V10.764C16.2557 10.764 16.6118 10.6165 16.8743 10.3539L15.4601 8.9397ZM15.8844 8.76397C16.0435 8.76397 16.1961 8.82718 16.3086 8.9397L14.8944 10.3539C15.157 10.6165 15.5131 10.764 15.8844 10.764V8.76397ZM16.3086 8.9397C16.4212 9.05222 16.4844 9.20483 16.4844 9.36397H14.4844C14.4844 9.73528 14.6319 10.0914 14.8944 10.3539L16.3086 8.9397ZM16.4844 9.36397V4.35557H14.4844V9.36397H16.4844ZM16.4844 4.35557C16.4844 4.5147 16.4212 4.66731 16.3086 4.77983L14.8944 3.36562C14.6319 3.62816 14.4844 3.98426 14.4844 4.35557H16.4844ZM16.3086 4.77983C16.1961 4.89235 16.0435 4.95557 15.8844 4.95557V2.95557C15.5131 2.95557 15.157 3.10307 14.8944 3.36562L16.3086 4.77983ZM15.8844 4.95557H55.4844V2.95557H15.8844V4.95557ZM55.4844 4.95557C55.3252 4.95557 55.1726 4.89235 55.0601 4.77983L56.4743 3.36562C56.2118 3.10307 55.8557 2.95557 55.4844 2.95557V4.95557ZM55.0601 4.77983C54.9476 4.66731 54.8844 4.51469 54.8844 4.35557H56.8844C56.8844 3.98427 56.7369 3.62817 56.4743 3.36562L55.0601 4.77983ZM54.8844 4.35557V31.8868H56.8844V4.35557H54.8844ZM54.8844 31.8868C54.8844 31.7276 54.9476 31.575 55.0601 31.4625L56.4743 32.8767C56.7369 32.6142 56.8844 32.2581 56.8844 31.8868H54.8844ZM55.0601 31.4625C55.1726 31.35 55.3252 31.2868 55.4844 31.2868V33.2868C55.8557 33.2868 56.2118 33.1393 56.4743 32.8767L55.0601 31.4625Z" fill="#09AFF4" mask="url(#path-11-inside-4_244_2698)"/>
<mask id="path-13-inside-5_244_2698" fill="white">
<path d="M53.4844 30.2868H23.268C23.1619 30.2868 23.0601 30.2446 22.9851 30.1696C22.9101 30.0946 22.868 29.9929 22.868 29.8868C22.868 29.7807 22.9101 29.6789 22.9851 29.6039C23.0601 29.5289 23.1619 29.4868 23.268 29.4868H53.0844V6.75557H18.2844V10.466C18.2844 10.5721 18.2422 10.6738 18.1672 10.7488C18.0922 10.8238 17.9905 10.866 17.8844 10.866C17.7783 10.866 17.6765 10.8238 17.6015 10.7488C17.5265 10.6738 17.4844 10.5721 17.4844 10.466V6.35557C17.4844 6.24948 17.5265 6.14774 17.6015 6.07272C17.6765 5.99771 17.7783 5.95557 17.8844 5.95557H53.4844C53.5905 5.95557 53.6922 5.99771 53.7672 6.07272C53.8422 6.14774 53.8844 6.24948 53.8844 6.35557V29.8868C53.8844 29.9929 53.8422 30.0946 53.7672 30.1696C53.6922 30.2446 53.5905 30.2868 53.4844 30.2868Z"/>
</mask>
<path d="M53.4844 30.2868H23.268C23.1619 30.2868 23.0601 30.2446 22.9851 30.1696C22.9101 30.0946 22.868 29.9929 22.868 29.8868C22.868 29.7807 22.9101 29.6789 22.9851 29.6039C23.0601 29.5289 23.1619 29.4868 23.268 29.4868H53.0844V6.75557H18.2844V10.466C18.2844 10.5721 18.2422 10.6738 18.1672 10.7488C18.0922 10.8238 17.9905 10.866 17.8844 10.866C17.7783 10.866 17.6765 10.8238 17.6015 10.7488C17.5265 10.6738 17.4844 10.5721 17.4844 10.466V6.35557C17.4844 6.24948 17.5265 6.14774 17.6015 6.07272C17.6765 5.99771 17.7783 5.95557 17.8844 5.95557H53.4844C53.5905 5.95557 53.6922 5.99771 53.7672 6.07272C53.8422 6.14774 53.8844 6.24948 53.8844 6.35557V29.8868C53.8844 29.9929 53.8422 30.0946 53.7672 30.1696C53.6922 30.2446 53.5905 30.2868 53.4844 30.2868Z" fill="#09AFF4"/>
<path d="M53.0844 29.4868V30.4868H54.0844V29.4868H53.0844ZM53.0844 6.75557H54.0844V5.75557H53.0844V6.75557ZM18.2844 6.75557V5.75557H17.2844V6.75557H18.2844ZM53.4844 29.2868H23.268V31.2868H53.4844V29.2868ZM23.268 29.2868C23.4271 29.2868 23.5797 29.35 23.6922 29.4625L22.278 30.8767C22.5406 31.1393 22.8967 31.2868 23.268 31.2868V29.2868ZM23.6922 29.4625C23.8048 29.575 23.868 29.7276 23.868 29.8868H21.868C21.868 30.2581 22.0155 30.6142 22.278 30.8767L23.6922 29.4625ZM23.868 29.8868C23.868 30.0459 23.8048 30.1985 23.6922 30.311L22.278 28.8968C22.0155 29.1594 21.868 29.5155 21.868 29.8868H23.868ZM23.6922 30.311C23.5797 30.4236 23.4271 30.4868 23.268 30.4868V28.4868C22.8967 28.4868 22.5406 28.6343 22.278 28.8968L23.6922 30.311ZM23.268 30.4868H53.0844V28.4868H23.268V30.4868ZM54.0844 29.4868V6.75557H52.0844V29.4868H54.0844ZM53.0844 5.75557H18.2844V7.75557H53.0844V5.75557ZM17.2844 6.75557V10.466H19.2844V6.75557H17.2844ZM17.2844 10.466C17.2844 10.3068 17.3476 10.1542 17.4601 10.0417L18.8743 11.4559C19.1369 11.1934 19.2844 10.8373 19.2844 10.466H17.2844ZM17.4601 10.0417C17.5726 9.92918 17.7252 9.86597 17.8844 9.86597V11.866C18.2557 11.866 18.6118 11.7185 18.8743 11.4559L17.4601 10.0417ZM17.8844 9.86597C18.0435 9.86597 18.1961 9.92918 18.3086 10.0417L16.8944 11.4559C17.157 11.7185 17.5131 11.866 17.8844 11.866V9.86597ZM18.3086 10.0417C18.4212 10.1542 18.4844 10.3068 18.4844 10.466H16.4844C16.4844 10.8373 16.6319 11.1934 16.8944 11.4559L18.3086 10.0417ZM18.4844 10.466V6.35557H16.4844V10.466H18.4844ZM18.4844 6.35557C18.4844 6.5147 18.4212 6.66731 18.3086 6.77983L16.8944 5.36562C16.6319 5.62816 16.4844 5.98426 16.4844 6.35557H18.4844ZM18.3086 6.77983C18.1961 6.89235 18.0435 6.95557 17.8844 6.95557V4.95557C17.5131 4.95557 17.157 5.10307 16.8944 5.36562L18.3086 6.77983ZM17.8844 6.95557H53.4844V4.95557H17.8844V6.95557ZM53.4844 6.95557C53.3252 6.95557 53.1726 6.89235 53.0601 6.77983L54.4743 5.36562C54.2118 5.10307 53.8557 4.95557 53.4844 4.95557V6.95557ZM53.0601 6.77983C52.9476 6.66731 52.8844 6.51469 52.8844 6.35557H54.8844C54.8844 5.98427 54.7369 5.62817 54.4743 5.36562L53.0601 6.77983ZM52.8844 6.35557V29.8868H54.8844V6.35557H52.8844ZM52.8844 29.8868C52.8844 29.7276 52.9476 29.575 53.0601 29.4625L54.4743 30.8767C54.7369 30.6142 54.8844 30.2581 54.8844 29.8868H52.8844ZM53.0601 29.4625C53.1726 29.35 53.3252 29.2868 53.4844 29.2868V31.2868C53.8557 31.2868 54.2118 31.1393 54.4743 30.8767L53.0601 29.4625Z" fill="#09AFF4" mask="url(#path-13-inside-5_244_2698)"/>
<mask id="path-15-inside-6_244_2698" fill="white">
<path d="M45.2912 34.6372H26.0768C25.9707 34.6372 25.8689 34.5951 25.7939 34.5201C25.7189 34.445 25.6768 34.3433 25.6768 34.2372V31.8868C25.6768 31.7807 25.7189 31.679 25.7939 31.604C25.8689 31.529 25.9707 31.4868 26.0768 31.4868H45.2912C45.3972 31.4868 45.499 31.529 45.574 31.604C45.649 31.679 45.6912 31.7807 45.6912 31.8868V34.2372C45.6912 34.3433 45.649 34.445 45.574 34.5201C45.499 34.5951 45.3972 34.6372 45.2912 34.6372ZM26.4768 33.8372H44.8912V32.2868H26.4768V33.8372Z"/>
</mask>
<path d="M45.2912 34.6372H26.0768C25.9707 34.6372 25.8689 34.5951 25.7939 34.5201C25.7189 34.445 25.6768 34.3433 25.6768 34.2372V31.8868C25.6768 31.7807 25.7189 31.679 25.7939 31.604C25.8689 31.529 25.9707 31.4868 26.0768 31.4868H45.2912C45.3972 31.4868 45.499 31.529 45.574 31.604C45.649 31.679 45.6912 31.7807 45.6912 31.8868V34.2372C45.6912 34.3433 45.649 34.445 45.574 34.5201C45.499 34.5951 45.3972 34.6372 45.2912 34.6372ZM26.4768 33.8372H44.8912V32.2868H26.4768V33.8372Z" fill="#09AFF4"/>
<path d="M26.4768 33.8372H25.4768V34.8372H26.4768V33.8372ZM44.8912 33.8372V34.8372H45.8912V33.8372H44.8912ZM44.8912 32.2868H45.8912V31.2868H44.8912V32.2868ZM26.4768 32.2868V31.2868H25.4768V32.2868H26.4768ZM45.2912 33.6372H26.0768V35.6372H45.2912V33.6372ZM26.0768 33.6372C26.2359 33.6372 26.3885 33.7004 26.501 33.813L25.0868 35.2272C25.3494 35.4897 25.7055 35.6372 26.0768 35.6372V33.6372ZM26.501 33.813C26.6135 33.9255 26.6768 34.0781 26.6768 34.2372H24.6768C24.6768 34.6085 24.8243 34.9646 25.0868 35.2272L26.501 33.813ZM26.6768 34.2372V31.8868H24.6768V34.2372H26.6768ZM26.6768 31.8868C26.6768 32.0459 26.6135 32.1986 26.501 32.3111L25.0868 30.8969C24.8243 31.1594 24.6768 31.5155 24.6768 31.8868H26.6768ZM26.501 32.3111C26.3885 32.4236 26.2359 32.4868 26.0768 32.4868V30.4868C25.7055 30.4868 25.3494 30.6343 25.0868 30.8969L26.501 32.3111ZM26.0768 32.4868H45.2912V30.4868H26.0768V32.4868ZM45.2912 32.4868C45.132 32.4868 44.9794 32.4236 44.8669 32.3111L46.2811 30.8969C46.0186 30.6343 45.6625 30.4868 45.2912 30.4868V32.4868ZM44.8669 32.3111C44.7544 32.1986 44.6912 32.0459 44.6912 31.8868H46.6912C46.6912 31.5155 46.5437 31.1594 46.2811 30.8969L44.8669 32.3111ZM44.6912 31.8868V34.2372H46.6912V31.8868H44.6912ZM44.6912 34.2372C44.6912 34.0781 44.7544 33.9255 44.8669 33.813L46.2811 35.2272C46.5437 34.9646 46.6912 34.6085 46.6912 34.2372H44.6912ZM44.8669 33.813C44.9794 33.7004 45.132 33.6372 45.2912 33.6372V35.6372C45.6625 35.6372 46.0186 35.4897 46.2811 35.2272L44.8669 33.813ZM26.4768 34.8372H44.8912V32.8372H26.4768V34.8372ZM45.8912 33.8372V32.2868H43.8912V33.8372H45.8912ZM44.8912 31.2868H26.4768V33.2868H44.8912V31.2868ZM25.4768 32.2868V33.8372H27.4768V32.2868H25.4768Z" fill="#09AFF4" mask="url(#path-15-inside-6_244_2698)"/>
<mask id="path-17-inside-7_244_2698" fill="white">
<path d="M27.1576 44.8708H24.5732C24.5041 44.8708 24.4361 44.853 24.376 44.8189C24.3158 44.7849 24.2655 44.7359 24.2299 44.6766C24.1943 44.6174 24.1747 44.5499 24.173 44.4808C24.1712 44.4117 24.1874 44.3433 24.22 44.2824L29.6724 34.0492C29.7065 33.9852 29.7573 33.9316 29.8194 33.8943C29.8816 33.857 29.9527 33.8372 30.0252 33.8372H32.6092C32.6783 33.8371 32.7462 33.855 32.8063 33.889C32.8664 33.923 32.9167 33.972 32.9522 34.0312C32.9878 34.0904 33.0074 34.1578 33.0092 34.2268C33.011 34.2959 32.9949 34.3642 32.9624 34.4252L27.5104 44.6588C27.4763 44.7227 27.4255 44.7763 27.3634 44.8136C27.3012 44.851 27.2301 44.8707 27.1576 44.8708ZM25.2376 44.0708H26.9152L31.9428 34.6372H30.2656L25.2376 44.0708Z"/>
</mask>
<path d="M27.1576 44.8708H24.5732C24.5041 44.8708 24.4361 44.853 24.376 44.8189C24.3158 44.7849 24.2655 44.7359 24.2299 44.6766C24.1943 44.6174 24.1747 44.5499 24.173 44.4808C24.1712 44.4117 24.1874 44.3433 24.22 44.2824L29.6724 34.0492C29.7065 33.9852 29.7573 33.9316 29.8194 33.8943C29.8816 33.857 29.9527 33.8372 30.0252 33.8372H32.6092C32.6783 33.8371 32.7462 33.855 32.8063 33.889C32.8664 33.923 32.9167 33.972 32.9522 34.0312C32.9878 34.0904 33.0074 34.1578 33.0092 34.2268C33.011 34.2959 32.9949 34.3642 32.9624 34.4252L27.5104 44.6588C27.4763 44.7227 27.4255 44.7763 27.3634 44.8136C27.3012 44.851 27.2301 44.8707 27.1576 44.8708ZM25.2376 44.0708H26.9152L31.9428 34.6372H30.2656L25.2376 44.0708Z" fill="#09AFF4"/>
<path d="M27.1576 44.8708V45.8708H27.1583L27.1576 44.8708ZM24.5732 44.8708V43.8708L24.5723 43.8708L24.5732 44.8708ZM24.22 44.2824L25.1021 44.7534L25.1025 44.7526L24.22 44.2824ZM29.6724 34.0492L30.5549 34.5194L30.5551 34.5192L29.6724 34.0492ZM30.0252 33.8372V32.8372L30.0245 32.8372L30.0252 33.8372ZM32.6092 33.8372V34.8372L32.6095 34.8372L32.6092 33.8372ZM32.9624 34.4252L33.845 34.8953L33.8451 34.8952L32.9624 34.4252ZM27.5104 44.6588L26.6278 44.1886L26.6277 44.1888L27.5104 44.6588ZM25.2376 44.0708L24.3551 43.6004L23.5714 45.0708H25.2376V44.0708ZM26.9152 44.0708V45.0708H27.5154L27.7977 44.5411L26.9152 44.0708ZM31.9428 34.6372L32.8253 35.1075L33.6089 33.6372H31.9428V34.6372ZM30.2656 34.6372V33.6372H29.6654L29.3831 34.1668L30.2656 34.6372ZM27.1576 43.8708H24.5732V45.8708H27.1576V43.8708ZM24.5723 43.8708C24.676 43.8707 24.778 43.8975 24.8682 43.9485L23.8837 45.6894C24.0943 45.8085 24.3321 45.871 24.5741 45.8708L24.5723 43.8708ZM24.8682 43.9485C24.9584 43.9995 25.0339 44.0731 25.0873 44.162L23.3725 45.1913C23.497 45.3987 23.6731 45.5703 23.8837 45.6894L24.8682 43.9485ZM25.0873 44.162C25.1406 44.2509 25.1701 44.3521 25.1727 44.4557L23.1733 44.5059C23.1794 44.7477 23.248 44.9839 23.3725 45.1913L25.0873 44.162ZM25.1727 44.4557C25.1753 44.5593 25.151 44.6619 25.1021 44.7534L23.3379 43.8114C23.2239 44.0248 23.1672 44.2641 23.1733 44.5059L25.1727 44.4557ZM25.1025 44.7526L30.5549 34.5194L28.7899 33.5789L23.3375 43.8121L25.1025 44.7526ZM30.5551 34.5192C30.504 34.6151 30.4277 34.6954 30.3345 34.7514L29.3044 33.0371C29.0869 33.1678 28.909 33.3552 28.7897 33.5792L30.5551 34.5192ZM30.3345 34.7514C30.2413 34.8075 30.1346 34.8371 30.0259 34.8372L30.0245 32.8372C29.7708 32.8373 29.5219 32.9064 29.3044 33.0371L30.3345 34.7514ZM30.0252 34.8372H32.6092V32.8372H30.0252V34.8372ZM32.6095 34.8372C32.5059 34.8372 32.4041 34.8104 32.3139 34.7594L33.2986 33.0186C33.0882 32.8996 32.8506 32.8371 32.6089 32.8372L32.6095 34.8372ZM32.3139 34.7594C32.2238 34.7084 32.1483 34.6349 32.095 34.5461L33.8095 33.5163C33.685 33.3091 33.509 33.1376 33.2986 33.0186L32.3139 34.7594ZM32.095 34.5461C32.0416 34.4573 32.0122 34.3562 32.0095 34.2526L34.0089 34.201C34.0026 33.9594 33.9339 33.7235 33.8095 33.5163L32.095 34.5461ZM32.0095 34.2526C32.0069 34.1491 32.031 34.0466 32.0797 33.9552L33.8451 34.8952C33.9587 34.6818 34.0151 34.4427 34.0089 34.201L32.0095 34.2526ZM32.0798 33.955L26.6278 44.1886L28.393 45.1289L33.845 34.8953L32.0798 33.955ZM26.6277 44.1888C26.6788 44.0928 26.7551 44.0125 26.8483 43.9565L27.8784 45.6708C28.0959 45.5401 28.2738 45.3527 28.3931 45.1288L26.6277 44.1888ZM26.8483 43.9565C26.9415 43.9005 27.0482 43.8708 27.1569 43.8708L27.1583 45.8708C27.412 45.8706 27.6609 45.8015 27.8784 45.6708L26.8483 43.9565ZM25.2376 45.0708H26.9152V43.0708H25.2376V45.0708ZM27.7977 44.5411L32.8253 35.1075L31.0603 34.1668L26.0327 43.6004L27.7977 44.5411ZM31.9428 33.6372H30.2656V35.6372H31.9428V33.6372ZM29.3831 34.1668L24.3551 43.6004L26.1201 44.5411L31.1481 35.1075L29.3831 34.1668Z" fill="#09AFF4" mask="url(#path-17-inside-7_244_2698)"/>
<mask id="path-19-inside-8_244_2698" fill="white">
<path d="M46.7955 44.8708H44.2111C44.1386 44.8707 44.0675 44.851 44.0053 44.8136C43.9432 44.7763 43.8924 44.7227 43.8583 44.6588L38.4063 34.4252C38.3739 34.3642 38.3577 34.2959 38.3595 34.2269C38.3613 34.1579 38.3809 34.0906 38.4164 34.0314C38.4519 33.9722 38.5021 33.9232 38.5622 33.8891C38.6222 33.8551 38.6901 33.8372 38.7591 33.8372H41.3431C41.4157 33.8371 41.4869 33.8569 41.5491 33.8942C41.6113 33.9315 41.6622 33.9851 41.6963 34.0492L47.1487 44.2824C47.1813 44.3433 47.1975 44.4117 47.1957 44.4808C47.194 44.5499 47.1744 44.6174 47.1388 44.6766C47.1032 44.7359 47.0529 44.7849 46.9927 44.8189C46.9326 44.853 46.8646 44.8708 46.7955 44.8708ZM44.4515 44.0708H46.1291L41.1031 34.6372H39.4255L44.4515 44.0708Z"/>
</mask>
<path d="M46.7955 44.8708H44.2111C44.1386 44.8707 44.0675 44.851 44.0053 44.8136C43.9432 44.7763 43.8924 44.7227 43.8583 44.6588L38.4063 34.4252C38.3739 34.3642 38.3577 34.2959 38.3595 34.2269C38.3613 34.1579 38.3809 34.0906 38.4164 34.0314C38.4519 33.9722 38.5021 33.9232 38.5622 33.8891C38.6222 33.8551 38.6901 33.8372 38.7591 33.8372H41.3431C41.4157 33.8371 41.4869 33.8569 41.5491 33.8942C41.6113 33.9315 41.6622 33.9851 41.6963 34.0492L47.1487 44.2824C47.1813 44.3433 47.1975 44.4117 47.1957 44.4808C47.194 44.5499 47.1744 44.6174 47.1388 44.6766C47.1032 44.7359 47.0529 44.7849 46.9927 44.8189C46.9326 44.853 46.8646 44.8708 46.7955 44.8708ZM44.4515 44.0708H46.1291L41.1031 34.6372H39.4255L44.4515 44.0708Z" fill="#09AFF4"/>
<path d="M46.7955 44.8708L46.7964 43.8708H46.7955V44.8708ZM44.2111 44.8708L44.2104 45.8708H44.2111V44.8708ZM43.8583 44.6588L44.741 44.1888L44.7409 44.1886L43.8583 44.6588ZM38.4063 34.4252L37.5236 34.8952L37.5237 34.8953L38.4063 34.4252ZM38.7591 33.8372V32.8372L38.7584 32.8372L38.7591 33.8372ZM41.3431 33.8372V34.8372L41.3434 34.8372L41.3431 33.8372ZM41.6963 34.0492L40.8136 34.5192L40.8138 34.5194L41.6963 34.0492ZM47.1487 44.2824L46.2662 44.7526L46.2666 44.7534L47.1487 44.2824ZM44.4515 44.0708L43.5689 44.541L43.8512 45.0708H44.4515V44.0708ZM46.1291 44.0708V45.0708H47.795L47.0117 43.6006L46.1291 44.0708ZM41.1031 34.6372L41.9857 34.167L41.7034 33.6372H41.1031V34.6372ZM39.4255 34.6372V33.6372H37.7597L38.543 35.1074L39.4255 34.6372ZM46.7955 43.8708H44.2111V45.8708H46.7955V43.8708ZM44.2118 43.8708C44.3205 43.8708 44.4272 43.9005 44.5204 43.9565L43.4903 45.6708C43.7078 45.8015 43.9567 45.8706 44.2104 45.8708L44.2118 43.8708ZM44.5204 43.9565C44.6136 44.0125 44.6899 44.0928 44.741 44.1888L42.9756 45.1288C43.0949 45.3527 43.2728 45.5401 43.4903 45.6708L44.5204 43.9565ZM44.7409 44.1886L39.2889 33.955L37.5237 34.8953L42.9757 45.1289L44.7409 44.1886ZM39.289 33.9552C39.3376 34.0466 39.3618 34.149 39.3592 34.2525L37.3598 34.2014C37.3537 34.4429 37.4101 34.6819 37.5236 34.8952L39.289 33.9552ZM39.3592 34.2525C39.3565 34.356 39.3271 34.4571 39.2739 34.5459L37.5589 33.5169C37.4346 33.724 37.366 33.9598 37.3598 34.2014L39.3592 34.2525ZM39.2739 34.5459C39.2206 34.6346 39.1453 34.7081 39.0552 34.7592L38.0692 33.0191C37.859 33.1382 37.6832 33.3097 37.5589 33.5169L39.2739 34.5459ZM39.0552 34.7592C38.9651 34.8102 38.8633 34.8371 38.7598 34.8372L38.7584 32.8372C38.5169 32.8373 38.2794 32.9 38.0692 33.0191L39.0552 34.7592ZM38.7591 34.8372H41.3431V32.8372H38.7591V34.8372ZM41.3434 34.8372C41.2346 34.8372 41.1278 34.8076 41.0345 34.7516L42.0637 33.0368C41.846 32.9061 41.5968 32.8371 41.3428 32.8372L41.3434 34.8372ZM41.0345 34.7516C40.9411 34.6956 40.8648 34.6152 40.8136 34.5192L42.579 33.5792C42.4596 33.355 42.2815 33.1675 42.0637 33.0368L41.0345 34.7516ZM40.8138 34.5194L46.2662 44.7526L48.0313 43.8121L42.5788 33.5789L40.8138 34.5194ZM46.2666 44.7534C46.2177 44.6619 46.1934 44.5594 46.196 44.4557L48.1954 44.5059C48.2015 44.264 48.1448 44.0248 48.0308 43.8114L46.2666 44.7534ZM46.196 44.4557C46.1986 44.352 46.2281 44.2508 46.2814 44.162L47.9962 45.1913C48.1207 44.9839 48.1893 44.7477 48.1954 44.5059L46.196 44.4557ZM46.2814 44.162C46.3348 44.0731 46.4103 43.9995 46.5005 43.9485L47.485 45.6894C47.6956 45.5703 47.8717 45.3987 47.9962 45.1913L46.2814 44.162ZM46.5005 43.9485C46.5908 43.8974 46.6927 43.8707 46.7964 43.8708L46.7946 45.8708C47.0366 45.871 47.2744 45.8085 47.485 45.6894L46.5005 43.9485ZM44.4515 45.0708H46.1291V43.0708H44.4515V45.0708ZM47.0117 43.6006L41.9857 34.167L40.2206 35.1074L45.2465 44.541L47.0117 43.6006ZM41.1031 33.6372H39.4255V35.6372H41.1031V33.6372ZM38.543 35.1074L43.5689 44.541L45.3341 43.6006L40.3081 34.167L38.543 35.1074Z" fill="#09AFF4" mask="url(#path-19-inside-8_244_2698)"/>
<mask id="path-21-inside-9_244_2698" fill="white">
<path d="M36.8041 44.8708H34.5641C34.458 44.8708 34.3562 44.8286 34.2812 44.7536C34.2062 44.6786 34.1641 44.5768 34.1641 44.4708V34.2372C34.1641 34.1311 34.2062 34.0293 34.2812 33.9543C34.3562 33.8793 34.458 33.8372 34.5641 33.8372H36.8041C36.9102 33.8372 37.0119 33.8793 37.0869 33.9543C37.1619 34.0293 37.2041 34.1311 37.2041 34.2372V44.4708C37.2041 44.5768 37.1619 44.6786 37.0869 44.7536C37.0119 44.8286 36.9102 44.8708 36.8041 44.8708ZM34.9641 44.0708H36.4041V34.6372H34.9641V44.0708Z"/>
</mask>
<path d="M36.8041 44.8708H34.5641C34.458 44.8708 34.3562 44.8286 34.2812 44.7536C34.2062 44.6786 34.1641 44.5768 34.1641 44.4708V34.2372C34.1641 34.1311 34.2062 34.0293 34.2812 33.9543C34.3562 33.8793 34.458 33.8372 34.5641 33.8372H36.8041C36.9102 33.8372 37.0119 33.8793 37.0869 33.9543C37.1619 34.0293 37.2041 34.1311 37.2041 34.2372V44.4708C37.2041 44.5768 37.1619 44.6786 37.0869 44.7536C37.0119 44.8286 36.9102 44.8708 36.8041 44.8708ZM34.9641 44.0708H36.4041V34.6372H34.9641V44.0708Z" fill="#09AFF4"/>
<path d="M34.9641 44.0708H33.9641V45.0708H34.9641V44.0708ZM36.4041 44.0708V45.0708H37.4041V44.0708H36.4041ZM36.4041 34.6372H37.4041V33.6372H36.4041V34.6372ZM34.9641 34.6372V33.6372H33.9641V34.6372H34.9641ZM36.8041 43.8708H34.5641V45.8708H36.8041V43.8708ZM34.5641 43.8708C34.7232 43.8708 34.8758 43.934 34.9883 44.0465L33.5741 45.4607C33.8367 45.7233 34.1928 45.8708 34.5641 45.8708V43.8708ZM34.9883 44.0465C35.1008 44.159 35.1641 44.3116 35.1641 44.4708H33.1641C33.1641 44.8421 33.3116 45.1982 33.5741 45.4607L34.9883 44.0465ZM35.1641 44.4708V34.2372H33.1641V44.4708H35.1641ZM35.1641 34.2372C35.1641 34.3963 35.1008 34.5489 34.9883 34.6614L33.5741 33.2472C33.3116 33.5097 33.1641 33.8658 33.1641 34.2372H35.1641ZM34.9883 34.6614C34.8758 34.7739 34.7232 34.8372 34.5641 34.8372V32.8372C34.1928 32.8372 33.8367 32.9847 33.5741 33.2472L34.9883 34.6614ZM34.5641 34.8372H36.8041V32.8372H34.5641V34.8372ZM36.8041 34.8372C36.6449 34.8372 36.4923 34.7739 36.3798 34.6614L37.794 33.2472C37.5315 32.9847 37.1754 32.8372 36.8041 32.8372V34.8372ZM36.3798 34.6614C36.2673 34.5489 36.2041 34.3963 36.2041 34.2372H38.2041C38.2041 33.8659 38.0566 33.5098 37.794 33.2472L36.3798 34.6614ZM36.2041 34.2372V44.4708H38.2041V34.2372H36.2041ZM36.2041 44.4708C36.2041 44.3116 36.2673 44.159 36.3798 44.0465L37.794 45.4607C38.0566 45.1982 38.2041 44.8421 38.2041 44.4708H36.2041ZM36.3798 44.0465C36.4923 43.934 36.6449 43.8708 36.8041 43.8708V45.8708C37.1754 45.8708 37.5315 45.7233 37.794 45.4607L36.3798 44.0465ZM34.9641 45.0708H36.4041V43.0708H34.9641V45.0708ZM37.4041 44.0708V34.6372H35.4041V44.0708H37.4041ZM36.4041 33.6372H34.9641V35.6372H36.4041V33.6372ZM33.9641 34.6372V44.0708H35.9641V34.6372H33.9641Z" fill="#09AFF4" mask="url(#path-21-inside-9_244_2698)"/>
<mask id="path-23-inside-10_244_2698" fill="white">
<path d="M50.734 18.1172H41.984C41.8779 18.1172 41.7762 18.075 41.7011 18C41.6261 17.925 41.584 17.8233 41.584 17.7172V10.344C41.584 10.2379 41.6261 10.1361 41.7011 10.0611C41.7762 9.98611 41.8779 9.94397 41.984 9.94397H50.734C50.8401 9.94397 50.9418 9.98611 51.0168 10.0611C51.0918 10.1361 51.134 10.2379 51.134 10.344V17.7172C51.134 17.8233 51.0918 17.925 51.0168 18C50.9418 18.075 50.8401 18.1172 50.734 18.1172ZM42.384 17.3172H50.334V10.744H42.384V17.3172Z"/>
</mask>
<path d="M50.734 18.1172H41.984C41.8779 18.1172 41.7762 18.075 41.7011 18C41.6261 17.925 41.584 17.8233 41.584 17.7172V10.344C41.584 10.2379 41.6261 10.1361 41.7011 10.0611C41.7762 9.98611 41.8779 9.94397 41.984 9.94397H50.734C50.8401 9.94397 50.9418 9.98611 51.0168 10.0611C51.0918 10.1361 51.134 10.2379 51.134 10.344V17.7172C51.134 17.8233 51.0918 17.925 51.0168 18C50.9418 18.075 50.8401 18.1172 50.734 18.1172ZM42.384 17.3172H50.334V10.744H42.384V17.3172Z" fill="#09AFF4"/>
<path d="M42.384 17.3172H41.384V18.3172H42.384V17.3172ZM50.334 17.3172V18.3172H51.334V17.3172H50.334ZM50.334 10.744H51.334V9.74397H50.334V10.744ZM42.384 10.744V9.74397H41.384V10.744H42.384ZM50.734 17.1172H41.984V19.1172H50.734V17.1172ZM41.984 17.1172C42.1431 17.1172 42.2957 17.1804 42.4082 17.2929L40.994 18.7071C41.2566 18.9697 41.6127 19.1172 41.984 19.1172V17.1172ZM42.4082 17.2929C42.5208 17.4054 42.584 17.558 42.584 17.7172H40.584C40.584 18.0885 40.7315 18.4446 40.994 18.7071L42.4082 17.2929ZM42.584 17.7172V10.344H40.584V17.7172H42.584ZM42.584 10.344C42.584 10.5031 42.5208 10.6557 42.4082 10.7682L40.994 9.35402C40.7315 9.61657 40.584 9.97267 40.584 10.344H42.584ZM42.4082 10.7682C42.2957 10.8808 42.1431 10.944 41.984 10.944V8.94397C41.6127 8.94397 41.2566 9.09147 40.994 9.35402L42.4082 10.7682ZM41.984 10.944H50.734V8.94397H41.984V10.944ZM50.734 10.944C50.5749 10.944 50.4222 10.8808 50.3097 10.7682L51.7239 9.35402C51.4614 9.09147 51.1053 8.94397 50.734 8.94397V10.944ZM50.3097 10.7682C50.1972 10.6557 50.134 10.5031 50.134 10.344H52.134C52.134 9.97267 51.9865 9.61657 51.7239 9.35402L50.3097 10.7682ZM50.134 10.344V17.7172H52.134V10.344H50.134ZM50.134 17.7172C50.134 17.558 50.1972 17.4054 50.3097 17.2929L51.7239 18.7071C51.9865 18.4446 52.134 18.0885 52.134 17.7172H50.134ZM50.3097 17.2929C50.4222 17.1804 50.5749 17.1172 50.734 17.1172V19.1172C51.1053 19.1172 51.4614 18.9697 51.7239 18.7071L50.3097 17.2929ZM42.384 18.3172H50.334V16.3172H42.384V18.3172ZM51.334 17.3172V10.744H49.334V17.3172H51.334ZM50.334 9.74397H42.384V11.744H50.334V9.74397ZM41.384 10.744V17.3172H43.384V10.744H41.384Z" fill="#09AFF4" mask="url(#path-23-inside-10_244_2698)"/>
<mask id="path-25-inside-11_244_2698" fill="white">
<path d="M38.9054 10.7956H23.2682C23.1621 10.7956 23.0603 10.7535 22.9853 10.6784C22.9103 10.6034 22.8682 10.5017 22.8682 10.3956C22.8682 10.2895 22.9103 10.1878 22.9853 10.1128C23.0603 10.0377 23.1621 9.99561 23.2682 9.99561H38.9054C39.0114 9.99561 39.1132 10.0377 39.1882 10.1128C39.2632 10.1878 39.3054 10.2895 39.3054 10.3956C39.3054 10.5017 39.2632 10.6034 39.1882 10.6784C39.1132 10.7535 39.0114 10.7956 38.9054 10.7956Z"/>
</mask>
<path d="M38.9054 10.7956H23.2682C23.1621 10.7956 23.0603 10.7535 22.9853 10.6784C22.9103 10.6034 22.8682 10.5017 22.8682 10.3956C22.8682 10.2895 22.9103 10.1878 22.9853 10.1128C23.0603 10.0377 23.1621 9.99561 23.2682 9.99561H38.9054C39.0114 9.99561 39.1132 10.0377 39.1882 10.1128C39.2632 10.1878 39.3054 10.2895 39.3054 10.3956C39.3054 10.5017 39.2632 10.6034 39.1882 10.6784C39.1132 10.7535 39.0114 10.7956 38.9054 10.7956Z" fill="#09AFF4"/>
<path d="M38.9054 9.79561H23.2682V11.7956H38.9054V9.79561ZM23.2682 9.79561C23.4273 9.79561 23.5799 9.85882 23.6924 9.97134L22.2782 11.3856C22.5408 11.6481 22.8969 11.7956 23.2682 11.7956V9.79561ZM23.6924 9.97134C23.8049 10.0839 23.8682 10.2365 23.8682 10.3956H21.8682C21.8682 10.7669 22.0157 11.123 22.2782 11.3856L23.6924 9.97134ZM23.8682 10.3956C23.8682 10.5547 23.8049 10.7074 23.6924 10.8199L22.2782 9.40566C22.0157 9.6682 21.8682 10.0243 21.8682 10.3956H23.8682ZM23.6924 10.8199C23.5799 10.9324 23.4273 10.9956 23.2682 10.9956V8.99561C22.8969 8.99561 22.5408 9.14311 22.2782 9.40566L23.6924 10.8199ZM23.2682 10.9956H38.9054V8.99561H23.2682V10.9956ZM38.9054 10.9956C38.7462 10.9956 38.5936 10.9324 38.4811 10.8199L39.8953 9.40566C39.6328 9.1431 39.2767 8.99561 38.9054 8.99561V10.9956ZM38.4811 10.8199C38.3686 10.7073 38.3054 10.5547 38.3054 10.3956H40.3054C40.3054 10.0243 40.1579 9.66821 39.8953 9.40566L38.4811 10.8199ZM38.3054 10.3956C38.3054 10.2365 38.3686 10.0839 38.4811 9.97134L39.8953 11.3856C40.1579 11.123 40.3054 10.7669 40.3054 10.3956H38.3054ZM38.4811 9.97134C38.5936 9.85882 38.7462 9.79561 38.9054 9.79561V11.7956C39.2767 11.7956 39.6328 11.6481 39.8953 11.3856L38.4811 9.97134Z" fill="#09AFF4" mask="url(#path-25-inside-11_244_2698)"/>
<mask id="path-27-inside-12_244_2698" fill="white">
<path d="M38.9054 14.6712H23.2682C23.1621 14.6712 23.0603 14.6291 22.9853 14.5541C22.9103 14.479 22.8682 14.3773 22.8682 14.2712C22.8682 14.1651 22.9103 14.0634 22.9853 13.9884C23.0603 13.9134 23.1621 13.8712 23.2682 13.8712H38.9054C39.0114 13.8712 39.1132 13.9134 39.1882 13.9884C39.2632 14.0634 39.3054 14.1651 39.3054 14.2712C39.3054 14.3773 39.2632 14.479 39.1882 14.5541C39.1132 14.6291 39.0114 14.6712 38.9054 14.6712Z"/>
</mask>
<path d="M38.9054 14.6712H23.2682C23.1621 14.6712 23.0603 14.6291 22.9853 14.5541C22.9103 14.479 22.8682 14.3773 22.8682 14.2712C22.8682 14.1651 22.9103 14.0634 22.9853 13.9884C23.0603 13.9134 23.1621 13.8712 23.2682 13.8712H38.9054C39.0114 13.8712 39.1132 13.9134 39.1882 13.9884C39.2632 14.0634 39.3054 14.1651 39.3054 14.2712C39.3054 14.3773 39.2632 14.479 39.1882 14.5541C39.1132 14.6291 39.0114 14.6712 38.9054 14.6712Z" fill="#09AFF4"/>
<path d="M38.9054 13.6712H23.2682V15.6712H38.9054V13.6712ZM23.2682 13.6712C23.4273 13.6712 23.5799 13.7344 23.6924 13.847L22.2782 15.2612C22.5408 15.5237 22.8968 15.6712 23.2682 15.6712V13.6712ZM23.6924 13.847C23.8049 13.9595 23.8682 14.1121 23.8682 14.2712H21.8682C21.8682 14.6425 22.0157 14.9986 22.2782 15.2612L23.6924 13.847ZM23.8682 14.2712C23.8682 14.4304 23.8049 14.583 23.6924 14.6955L22.2782 13.2813C22.0157 13.5438 21.8682 13.8999 21.8682 14.2712H23.8682ZM23.6924 14.6955C23.5799 14.808 23.4273 14.8712 23.2682 14.8712V12.8712C22.8969 12.8712 22.5408 13.0187 22.2782 13.2813L23.6924 14.6955ZM23.2682 14.8712H38.9054V12.8712H23.2682V14.8712ZM38.9054 14.8712C38.7462 14.8712 38.5936 14.808 38.4811 14.6955L39.8953 13.2813C39.6328 13.0187 39.2767 12.8712 38.9054 12.8712V14.8712ZM38.4811 14.6955C38.3686 14.583 38.3054 14.4303 38.3054 14.2712H40.3054C40.3054 13.8999 40.1579 13.5438 39.8953 13.2813L38.4811 14.6955ZM38.3054 14.2712C38.3054 14.1121 38.3686 13.9595 38.4811 13.847L39.8953 15.2612C40.1579 14.9986 40.3054 14.6425 40.3054 14.2712H38.3054ZM38.4811 13.847C38.5936 13.7344 38.7462 13.6712 38.9054 13.6712V15.6712C39.2767 15.6712 39.6328 15.5237 39.8953 15.2612L38.4811 13.847Z" fill="#09AFF4" mask="url(#path-27-inside-12_244_2698)"/>
<mask id="path-29-inside-13_244_2698" fill="white">
<path d="M38.9054 18.5472H23.2682C23.1621 18.5472 23.0603 18.5051 22.9853 18.43C22.9103 18.355 22.8682 18.2533 22.8682 18.1472C22.8682 18.0411 22.9103 17.9394 22.9853 17.8643C23.0603 17.7893 23.1621 17.7472 23.2682 17.7472H38.9054C39.0114 17.7472 39.1132 17.7893 39.1882 17.8643C39.2632 17.9394 39.3054 18.0411 39.3054 18.1472C39.3054 18.2533 39.2632 18.355 39.1882 18.43C39.1132 18.5051 39.0114 18.5472 38.9054 18.5472Z"/>
</mask>
<path d="M38.9054 18.5472H23.2682C23.1621 18.5472 23.0603 18.5051 22.9853 18.43C22.9103 18.355 22.8682 18.2533 22.8682 18.1472C22.8682 18.0411 22.9103 17.9394 22.9853 17.8643C23.0603 17.7893 23.1621 17.7472 23.2682 17.7472H38.9054C39.0114 17.7472 39.1132 17.7893 39.1882 17.8643C39.2632 17.9394 39.3054 18.0411 39.3054 18.1472C39.3054 18.2533 39.2632 18.355 39.1882 18.43C39.1132 18.5051 39.0114 18.5472 38.9054 18.5472Z" fill="#09AFF4"/>
<path d="M38.9054 17.5472H23.2682V19.5472H38.9054V17.5472ZM23.2682 17.5472C23.4273 17.5472 23.5799 17.6104 23.6924 17.7229L22.2782 19.1371C22.5408 19.3997 22.8969 19.5472 23.2682 19.5472V17.5472ZM23.6924 17.7229C23.8049 17.8354 23.8682 17.9881 23.8682 18.1472H21.8682C21.8682 18.5185 22.0157 18.8746 22.2782 19.1371L23.6924 17.7229ZM23.8682 18.1472C23.8682 18.3063 23.8049 18.4589 23.6924 18.5715L22.2782 17.1572C22.0157 17.4198 21.8682 17.7759 21.8682 18.1472H23.8682ZM23.6924 18.5715C23.5799 18.684 23.4273 18.7472 23.2682 18.7472V16.7472C22.8969 16.7472 22.5408 16.8947 22.2782 17.1572L23.6924 18.5715ZM23.2682 18.7472H38.9054V16.7472H23.2682V18.7472ZM38.9054 18.7472C38.7462 18.7472 38.5936 18.684 38.4811 18.5715L39.8953 17.1572C39.6328 16.8947 39.2767 16.7472 38.9054 16.7472V18.7472ZM38.4811 18.5715C38.3686 18.4589 38.3054 18.3063 38.3054 18.1472H40.3054C40.3054 17.7759 40.1579 17.4198 39.8953 17.1572L38.4811 18.5715ZM38.3054 18.1472C38.3054 17.9881 38.3686 17.8355 38.4811 17.7229L39.8953 19.1371C40.1579 18.8746 40.3054 18.5185 40.3054 18.1472H38.3054ZM38.4811 17.7229C38.5936 17.6104 38.7462 17.5472 38.9054 17.5472V19.5472C39.2767 19.5472 39.6328 19.3997 39.8953 19.1371L38.4811 17.7229Z" fill="#09AFF4" mask="url(#path-29-inside-13_244_2698)"/>
<mask id="path-31-inside-14_244_2698" fill="white">
<path d="M50.7346 22.4228H23.2682C23.1621 22.4228 23.0603 22.3807 22.9853 22.3056C22.9103 22.2306 22.8682 22.1289 22.8682 22.0228C22.8682 21.9167 22.9103 21.815 22.9853 21.74C23.0603 21.6649 23.1621 21.6228 23.2682 21.6228H50.7346C50.8406 21.6228 50.9424 21.6649 51.0174 21.74C51.0924 21.815 51.1346 21.9167 51.1346 22.0228C51.1346 22.1289 51.0924 22.2306 51.0174 22.3056C50.9424 22.3807 50.8406 22.4228 50.7346 22.4228Z"/>
</mask>
<path d="M50.7346 22.4228H23.2682C23.1621 22.4228 23.0603 22.3807 22.9853 22.3056C22.9103 22.2306 22.8682 22.1289 22.8682 22.0228C22.8682 21.9167 22.9103 21.815 22.9853 21.74C23.0603 21.6649 23.1621 21.6228 23.2682 21.6228H50.7346C50.8406 21.6228 50.9424 21.6649 51.0174 21.74C51.0924 21.815 51.1346 21.9167 51.1346 22.0228C51.1346 22.1289 51.0924 22.2306 51.0174 22.3056C50.9424 22.3807 50.8406 22.4228 50.7346 22.4228Z" fill="#09AFF4"/>
<path d="M50.7346 21.4228H23.2682V23.4228H50.7346V21.4228ZM23.2682 21.4228C23.4273 21.4228 23.5799 21.486 23.6924 21.5985L22.2782 23.0128C22.5408 23.2753 22.8969 23.4228 23.2682 23.4228V21.4228ZM23.6924 21.5985C23.8049 21.7111 23.8682 21.8637 23.8682 22.0228H21.8682C21.8682 22.3941 22.0157 22.7502 22.2782 23.0128L23.6924 21.5985ZM23.8682 22.0228C23.8682 22.1819 23.8049 22.3345 23.6924 22.4471L22.2782 21.0329C22.0157 21.2954 21.8682 21.6515 21.8682 22.0228H23.8682ZM23.6924 22.4471C23.5799 22.5596 23.4273 22.6228 23.2682 22.6228V20.6228C22.8969 20.6228 22.5408 20.7703 22.2782 21.0329L23.6924 22.4471ZM23.2682 22.6228H50.7346V20.6228H23.2682V22.6228ZM50.7346 22.6228C50.5754 22.6228 50.4228 22.5596 50.3103 22.4471L51.7245 21.0329C51.462 20.7703 51.1059 20.6228 50.7346 20.6228V22.6228ZM50.3103 22.4471C50.1978 22.3345 50.1346 22.1819 50.1346 22.0228H52.1346C52.1346 21.6515 51.9871 21.2954 51.7245 21.0329L50.3103 22.4471ZM50.1346 22.0228C50.1346 21.8637 50.1978 21.7111 50.3103 21.5985L51.7245 23.0128C51.9871 22.7502 52.1346 22.3941 52.1346 22.0228H50.1346ZM50.3103 21.5985C50.4228 21.486 50.5754 21.4228 50.7346 21.4228V23.4228C51.1059 23.4228 51.462 23.2753 51.7245 23.0128L50.3103 21.5985Z" fill="#09AFF4" mask="url(#path-31-inside-14_244_2698)"/>
<mask id="path-33-inside-15_244_2698" fill="white">
<path d="M50.7346 26.2988H23.2682C23.1621 26.2988 23.0603 26.2566 22.9853 26.1816C22.9103 26.1066 22.8682 26.0049 22.8682 25.8988C22.8682 25.7927 22.9103 25.691 22.9853 25.6159C23.0603 25.5409 23.1621 25.4988 23.2682 25.4988H50.7346C50.8406 25.4988 50.9424 25.5409 51.0174 25.6159C51.0924 25.691 51.1346 25.7927 51.1346 25.8988C51.1346 26.0049 51.0924 26.1066 51.0174 26.1816C50.9424 26.2566 50.8406 26.2988 50.7346 26.2988Z"/>
</mask>
<path d="M50.7346 26.2988H23.2682C23.1621 26.2988 23.0603 26.2566 22.9853 26.1816C22.9103 26.1066 22.8682 26.0049 22.8682 25.8988C22.8682 25.7927 22.9103 25.691 22.9853 25.6159C23.0603 25.5409 23.1621 25.4988 23.2682 25.4988H50.7346C50.8406 25.4988 50.9424 25.5409 51.0174 25.6159C51.0924 25.691 51.1346 25.7927 51.1346 25.8988C51.1346 26.0049 51.0924 26.1066 51.0174 26.1816C50.9424 26.2566 50.8406 26.2988 50.7346 26.2988Z" fill="#09AFF4"/>
<path d="M50.7346 25.2988H23.2682V27.2988H50.7346V25.2988ZM23.2682 25.2988C23.4273 25.2988 23.5799 25.362 23.6924 25.4745L22.2782 26.8887C22.5408 27.1513 22.8969 27.2988 23.2682 27.2988V25.2988ZM23.6924 25.4745C23.8049 25.587 23.8682 25.7396 23.8682 25.8988H21.8682C21.8682 26.2701 22.0157 26.6262 22.2782 26.8887L23.6924 25.4745ZM23.8682 25.8988C23.8682 26.0579 23.8049 26.2105 23.6924 26.323L22.2782 24.9088C22.0157 25.1714 21.8682 25.5275 21.8682 25.8988H23.8682ZM23.6924 26.323C23.5799 26.4356 23.4273 26.4988 23.2682 26.4988V24.4988C22.8969 24.4988 22.5408 24.6463 22.2782 24.9088L23.6924 26.323ZM23.2682 26.4988H50.7346V24.4988H23.2682V26.4988ZM50.7346 26.4988C50.5754 26.4988 50.4228 26.4356 50.3103 26.323L51.7245 24.9088C51.462 24.6463 51.1059 24.4988 50.7346 24.4988V26.4988ZM50.3103 26.323C50.1978 26.2105 50.1346 26.0579 50.1346 25.8988H52.1346C52.1346 25.5275 51.9871 25.1714 51.7245 24.9088L50.3103 26.323ZM50.1346 25.8988C50.1346 25.7397 50.1978 25.587 50.3103 25.4745L51.7245 26.8887C51.9871 26.6262 52.1346 26.2701 52.1346 25.8988H50.1346ZM50.3103 25.4745C50.4228 25.362 50.5754 25.2988 50.7346 25.2988V27.2988C51.1059 27.2988 51.462 27.1513 51.7245 26.8887L50.3103 25.4745Z" fill="#09AFF4" mask="url(#path-33-inside-15_244_2698)"/>
<mask id="path-35-inside-16_244_2698" fill="white">
<path d="M40.2108 51.5116C39.4991 51.5139 38.809 51.267 38.2602 50.8138C37.7114 50.3605 37.3386 49.7295 37.2064 49.0302C37.0742 48.3308 37.1909 47.6073 37.5363 46.985C37.8817 46.3626 38.434 45.8809 39.0975 45.6232C39.7609 45.3655 40.4936 45.3481 41.1685 45.5741C41.8434 45.8 42.418 46.2551 42.7925 46.8604C43.167 47.4656 43.3179 48.1828 43.2189 48.8876C43.12 49.5925 42.7775 50.2404 42.2508 50.7192C41.6941 51.2295 40.9661 51.5123 40.2108 51.5116ZM40.2108 46.2444C39.6186 46.245 39.0509 46.4805 38.6321 46.8993C38.2134 47.318 37.9778 47.8858 37.9772 48.478C37.9772 49.0711 38.2128 49.6399 38.6322 50.0593C39.0516 50.4787 39.6205 50.7144 40.2136 50.7144C40.8067 50.7144 41.3756 50.4787 41.795 50.0593C42.2144 49.6399 42.45 49.0711 42.45 48.478C42.4483 47.8851 42.2117 47.3171 41.7919 46.8985C41.3722 46.4798 40.8036 46.2446 40.2108 46.2444Z"/>
</mask>
<path d="M40.2108 51.5116C39.4991 51.5139 38.809 51.267 38.2602 50.8138C37.7114 50.3605 37.3386 49.7295 37.2064 49.0302C37.0742 48.3308 37.1909 47.6073 37.5363 46.985C37.8817 46.3626 38.434 45.8809 39.0975 45.6232C39.7609 45.3655 40.4936 45.3481 41.1685 45.5741C41.8434 45.8 42.418 46.2551 42.7925 46.8604C43.167 47.4656 43.3179 48.1828 43.2189 48.8876C43.12 49.5925 42.7775 50.2404 42.2508 50.7192C41.6941 51.2295 40.9661 51.5123 40.2108 51.5116ZM40.2108 46.2444C39.6186 46.245 39.0509 46.4805 38.6321 46.8993C38.2134 47.318 37.9778 47.8858 37.9772 48.478C37.9772 49.0711 38.2128 49.6399 38.6322 50.0593C39.0516 50.4787 39.6205 50.7144 40.2136 50.7144C40.8067 50.7144 41.3756 50.4787 41.795 50.0593C42.2144 49.6399 42.45 49.0711 42.45 48.478C42.4483 47.8851 42.2117 47.3171 41.7919 46.8985C41.3722 46.4798 40.8036 46.2446 40.2108 46.2444Z" fill="#09AFF4"/>
<path d="M40.2108 51.5116L40.2118 50.5116L40.2076 50.5116L40.2108 51.5116ZM42.2508 50.7192L41.5782 49.9792L41.5751 49.982L42.2508 50.7192ZM40.2108 46.2444L40.2112 45.2444L40.2097 45.2444L40.2108 46.2444ZM37.9772 48.478L36.9772 48.4769V48.478H37.9772ZM40.2136 50.7144V51.7144V50.7144ZM42.45 48.478H43.45L43.45 48.4751L42.45 48.478ZM40.2076 50.5116C39.7294 50.5131 39.2657 50.3473 38.897 50.0427L37.6234 51.5848C38.3522 52.1867 39.2688 52.5146 40.214 52.5116L40.2076 50.5116ZM38.897 50.0427C38.5283 49.7382 38.2778 49.3143 38.189 48.8444L36.2238 49.216C36.3994 50.1448 36.8946 50.9828 37.6234 51.5848L38.897 50.0427ZM38.189 48.8444C38.1001 48.3745 38.1785 47.8884 38.4106 47.4703L36.6619 46.4996C36.2032 47.3261 36.0482 48.2871 36.2238 49.216L38.189 48.8444ZM38.4106 47.4703C38.6427 47.0522 39.0138 46.7285 39.4595 46.5553L38.7354 44.691C37.8543 45.0333 37.1207 45.6731 36.6619 46.4996L38.4106 47.4703ZM39.4595 46.5553C39.9053 46.3822 40.3976 46.3705 40.851 46.5223L41.486 44.6258C40.5897 44.3257 39.6165 44.3488 38.7354 44.691L39.4595 46.5553ZM40.851 46.5223C41.3045 46.6742 41.6905 46.9799 41.9421 47.3865L43.6429 46.3342C43.1455 45.5303 42.3824 44.9259 41.486 44.6258L40.851 46.5223ZM41.9421 47.3865C42.1938 47.7932 42.2951 48.2751 42.2286 48.7486L44.2092 49.0267C44.3406 48.0906 44.1403 47.138 43.6429 46.3342L41.9421 47.3865ZM42.2286 48.7486C42.1622 49.2222 41.932 49.6575 41.5782 49.9792L42.9234 51.4592C43.6229 50.8233 44.0778 49.9628 44.2092 49.0267L42.2286 48.7486ZM41.5751 49.982C41.203 50.3231 40.7165 50.512 40.2118 50.5116L40.2099 52.5116C41.2156 52.5125 42.1851 52.1359 42.9265 51.4563L41.5751 49.982ZM40.2097 45.2444C39.3527 45.2453 38.531 45.5861 37.925 46.1922L39.3392 47.6064C39.5707 47.3749 39.8845 47.2447 40.2119 47.2444L40.2097 45.2444ZM37.925 46.1922C37.319 46.7982 36.9781 47.6199 36.9772 48.4769L38.9772 48.479C38.9776 48.1517 39.1078 47.8379 39.3392 47.6064L37.925 46.1922ZM36.9772 48.478C36.9772 49.3363 37.3182 50.1595 37.9251 50.7664L39.3393 49.3522C39.1075 49.1204 38.9772 48.8059 38.9772 48.478H36.9772ZM37.9251 50.7664C38.5321 51.3734 39.3553 51.7144 40.2136 51.7144V49.7144C39.8857 49.7144 39.5712 49.5841 39.3393 49.3522L37.9251 50.7664ZM40.2136 51.7144C41.072 51.7144 41.8951 51.3734 42.5021 50.7664L41.0879 49.3522C40.856 49.5841 40.5415 49.7144 40.2136 49.7144V51.7144ZM42.5021 50.7664C43.109 50.1595 43.45 49.3363 43.45 48.478H41.45C41.45 48.8059 41.3197 49.1204 41.0879 49.3522L42.5021 50.7664ZM43.45 48.4751C43.4476 47.6176 43.1053 46.7961 42.4982 46.1905L41.0857 47.6065C41.3181 47.8382 41.4491 48.1526 41.45 48.4808L43.45 48.4751ZM42.4982 46.1905C41.8911 45.5849 41.0687 45.2447 40.2112 45.2444L40.2105 47.2444C40.5386 47.2445 40.8534 47.3747 41.0857 47.6065L42.4982 46.1905Z" fill="#09AFF4" mask="url(#path-35-inside-16_244_2698)"/>
<mask id="path-37-inside-17_244_2698" fill="white">
<path d="M45.5602 56.034H34.8678C34.7687 56.034 34.673 55.9972 34.5995 55.9306C34.526 55.8641 34.4797 55.7727 34.4698 55.674C34.4619 55.6076 34.4577 55.5408 34.457 55.474C34.4584 54.2821 34.8291 53.1198 35.5182 52.1473C36.2073 51.1747 37.1809 50.4396 38.305 50.0432C38.3734 50.0191 38.447 50.0141 38.518 50.0286C38.5891 50.0431 38.6548 50.0766 38.7082 50.1256C39.1185 50.5012 39.6546 50.7095 40.2108 50.7095C40.7671 50.7095 41.3032 50.5012 41.7134 50.1256C41.7669 50.076 41.8329 50.0419 41.9043 50.0271C41.9757 50.0123 42.0499 50.0173 42.1186 50.0416C43.2427 50.438 44.2163 51.1731 44.9053 52.1457C45.5944 53.1182 45.965 54.2805 45.9662 55.4724C45.9662 55.5068 45.9662 55.5396 45.963 55.5724L45.9606 55.6312C45.961 55.684 45.9509 55.7363 45.931 55.7852C45.911 55.8341 45.8816 55.8785 45.8443 55.916C45.8071 55.9534 45.7628 55.9831 45.7141 56.0034C45.6653 56.0237 45.613 56.0341 45.5602 56.034ZM35.2622 55.234H45.1602C45.1132 54.2886 44.7968 53.3763 44.2484 52.6047C43.7 51.8331 42.9425 51.2344 42.065 50.8792C41.5345 51.2893 40.8828 51.5118 40.2122 51.5118C39.5416 51.5118 38.89 51.2893 38.3594 50.8792C37.4818 51.2343 36.724 51.8329 36.1753 52.6045C35.6266 53.3761 35.3096 54.2884 35.2622 55.234Z"/>
</mask>
<path d="M45.5602 56.034H34.8678C34.7687 56.034 34.673 55.9972 34.5995 55.9306C34.526 55.8641 34.4797 55.7727 34.4698 55.674C34.4619 55.6076 34.4577 55.5408 34.457 55.474C34.4584 54.2821 34.8291 53.1198 35.5182 52.1473C36.2073 51.1747 37.1809 50.4396 38.305 50.0432C38.3734 50.0191 38.447 50.0141 38.518 50.0286C38.5891 50.0431 38.6548 50.0766 38.7082 50.1256C39.1185 50.5012 39.6546 50.7095 40.2108 50.7095C40.7671 50.7095 41.3032 50.5012 41.7134 50.1256C41.7669 50.076 41.8329 50.0419 41.9043 50.0271C41.9757 50.0123 42.0499 50.0173 42.1186 50.0416C43.2427 50.438 44.2163 51.1731 44.9053 52.1457C45.5944 53.1182 45.965 54.2805 45.9662 55.4724C45.9662 55.5068 45.9662 55.5396 45.963 55.5724L45.9606 55.6312C45.961 55.684 45.9509 55.7363 45.931 55.7852C45.911 55.8341 45.8816 55.8785 45.8443 55.916C45.8071 55.9534 45.7628 55.9831 45.7141 56.0034C45.6653 56.0237 45.613 56.0341 45.5602 56.034ZM35.2622 55.234H45.1602C45.1132 54.2886 44.7968 53.3763 44.2484 52.6047C43.7 51.8331 42.9425 51.2344 42.065 50.8792C41.5345 51.2893 40.8828 51.5118 40.2122 51.5118C39.5416 51.5118 38.89 51.2893 38.3594 50.8792C37.4818 51.2343 36.724 51.8329 36.1753 52.6045C35.6266 53.3761 35.3096 54.2884 35.2622 55.234Z" fill="#09AFF4"/>
<path d="M45.5602 56.034L45.5613 55.034H45.5602V56.034ZM34.8678 56.034V55.034H34.8678L34.8678 56.034ZM34.4698 55.674L35.4648 55.574L35.4639 55.565L35.4628 55.556L34.4698 55.674ZM34.457 55.474L33.457 55.4729L33.4571 55.4835L34.457 55.474ZM38.305 50.0432L37.9727 49.1L37.9724 49.1001L38.305 50.0432ZM38.7082 50.1256L38.0325 50.8628L38.033 50.8632L38.7082 50.1256ZM40.2108 50.7095V49.7095V50.7095ZM41.7134 50.1256L42.3887 50.8632L42.3937 50.8586L41.7134 50.1256ZM42.1186 50.0416L41.7859 50.9846L41.7861 50.9847L42.1186 50.0416ZM45.9662 55.4724H46.9662L46.9662 55.4714L45.9662 55.4724ZM45.963 55.5724L44.9678 55.4753L44.965 55.5034L44.9639 55.5316L45.963 55.5724ZM45.9606 55.6312L44.9615 55.5904L44.9605 55.6143L44.9607 55.6382L45.9606 55.6312ZM35.2622 55.234L34.2635 55.184L34.2109 56.234H35.2622V55.234ZM45.1602 55.234V56.234H46.2112L46.159 55.1843L45.1602 55.234ZM42.065 50.8792L42.4403 49.9523L41.9079 49.7367L41.4535 50.088L42.065 50.8792ZM38.3594 50.8792L38.971 50.088L38.5167 49.7368L37.9843 49.9522L38.3594 50.8792ZM45.5602 55.034H34.8678V57.034H45.5602V55.034ZM34.8678 55.034C35.0166 55.034 35.16 55.0892 35.2703 55.189L33.9287 56.6723C34.1861 56.9051 34.5208 57.034 34.8678 57.034L34.8678 55.034ZM35.2703 55.189C35.3806 55.2888 35.4499 55.426 35.4648 55.574L33.4748 55.774C33.5096 56.1193 33.6713 56.4394 33.9287 56.6723L35.2703 55.189ZM35.4628 55.556C35.4592 55.5256 35.4573 55.495 35.457 55.4645L33.4571 55.4835C33.4581 55.5867 33.4647 55.6896 33.4768 55.792L35.4628 55.556ZM35.457 55.4751C35.4582 54.4899 35.7646 53.5293 36.3342 52.7254L34.7023 51.5691C33.8937 52.7104 33.4586 54.0742 33.457 55.4729L35.457 55.4751ZM36.3342 52.7254C36.9038 51.9215 37.7085 51.3139 38.6376 50.9863L37.9724 49.1001C36.6534 49.5653 35.5109 50.4279 34.7023 51.5691L36.3342 52.7254ZM38.6373 50.9864C38.5348 51.0225 38.4243 51.0301 38.3178 51.0083L38.7183 49.0488C38.4697 48.998 38.212 49.0157 37.9727 49.1L38.6373 50.9864ZM38.3178 51.0083C38.2113 50.9865 38.1127 50.9362 38.0325 50.8628L39.3839 49.3884C39.1969 49.217 38.9668 49.0996 38.7183 49.0488L38.3178 51.0083ZM38.033 50.8632C38.6276 51.4076 39.4046 51.7095 40.2108 51.7095V49.7095C39.9046 49.7095 39.6094 49.5948 39.3835 49.388L38.033 50.8632ZM40.2108 51.7095C41.0171 51.7095 41.794 51.4076 42.3887 50.8632L41.0382 49.388C40.8123 49.5948 40.5171 49.7095 40.2108 49.7095V51.7095ZM42.3937 50.8586C42.3135 50.933 42.2144 50.9841 42.1073 51.0063L41.7013 49.0479C41.4514 49.0998 41.2203 49.2189 41.0332 49.3926L42.3937 50.8586ZM42.1073 51.0063C42.0002 51.0285 41.889 51.021 41.7859 50.9846L42.4514 49.0986C42.2107 49.0136 41.9513 48.9961 41.7013 49.0479L42.1073 51.0063ZM41.7861 50.9847C42.7151 51.3123 43.5198 51.9199 44.0894 52.7237L45.7213 51.5676C44.9127 50.4263 43.7703 49.5637 42.4512 49.0985L41.7861 50.9847ZM44.0894 52.7237C44.6589 53.5276 44.9652 54.4882 44.9662 55.4734L46.9662 55.4714C46.9648 54.0727 46.5299 52.7088 45.7213 51.5676L44.0894 52.7237ZM44.9662 55.4724C44.9662 55.4815 44.9662 55.487 44.9662 55.492C44.9662 55.4966 44.9661 55.4985 44.9661 55.4989C44.9661 55.4998 44.9663 55.4905 44.9678 55.4753L46.9583 55.6695C46.967 55.5801 46.9662 55.4983 46.9662 55.4724H44.9662ZM44.9639 55.5316L44.9615 55.5904L46.9598 55.672L46.9622 55.6132L44.9639 55.5316ZM44.9607 55.6382C44.9601 55.559 44.9752 55.4805 45.0052 55.4072L46.8567 56.1633C46.9266 55.9922 46.9619 55.809 46.9606 55.6242L44.9607 55.6382ZM45.0052 55.4072C45.0351 55.3339 45.0793 55.2672 45.1351 55.211L46.5535 56.621C46.6839 56.4899 46.7869 56.3343 46.8567 56.1633L45.0052 55.4072ZM45.1351 55.211C45.191 55.1548 45.2574 55.1103 45.3305 55.0799L46.0977 56.9269C46.2683 56.856 46.4232 56.7521 46.5535 56.621L45.1351 55.211ZM45.3305 55.0799C45.4036 55.0495 45.482 55.0339 45.5613 55.034L45.5592 57.034C45.7441 57.0342 45.9271 56.9978 46.0977 56.9269L45.3305 55.0799ZM35.2622 56.234H45.1602V54.234H35.2622V56.234ZM46.159 55.1843C46.1025 54.0484 45.7224 52.9524 45.0635 52.0254L43.4333 53.184C43.8713 53.8002 44.1239 54.5287 44.1615 55.2837L46.159 55.1843ZM45.0635 52.0254C44.4046 51.0984 43.4945 50.3791 42.4403 49.9523L41.6897 51.8061C42.3904 52.0898 42.9954 52.5679 43.4333 53.184L45.0635 52.0254ZM41.4535 50.088C41.098 50.3627 40.6615 50.5118 40.2122 50.5118V52.5118C41.1042 52.5118 41.9709 52.2159 42.6766 51.6704L41.4535 50.088ZM40.2122 50.5118C39.763 50.5118 39.3264 50.3627 38.971 50.088L37.7479 51.6704C38.4536 52.2159 39.3203 52.5118 40.2122 52.5118V50.5118ZM37.9843 49.9522C36.93 50.3789 36.0195 51.098 35.3604 52.025L36.9903 53.184C37.4284 52.5679 38.0336 52.0898 38.7345 51.8062L37.9843 49.9522ZM35.3604 52.025C34.7013 52.9517 34.3204 54.0477 34.2635 55.184L36.261 55.284C36.2988 54.5291 36.5519 53.8005 36.9903 53.184L35.3604 52.025Z" fill="#09AFF4" mask="url(#path-37-inside-17_244_2698)"/>
<mask id="path-39-inside-18_244_2698" fill="white">
<path d="M32.6089 50.9568C32.0092 50.9584 31.4279 50.75 30.9657 50.3679C30.5036 49.9857 30.1897 49.4538 30.0786 48.8645C29.9675 48.2752 30.0662 47.6656 30.3575 47.1414C30.6488 46.6172 31.1144 46.2115 31.6735 45.9946C32.2326 45.7777 32.8499 45.7634 33.4185 45.954C33.9871 46.1446 34.4711 46.5283 34.7864 47.0383C35.1018 47.5484 35.2287 48.1528 35.1451 48.7466C35.0616 49.3405 34.7728 49.8864 34.3289 50.2896C33.8594 50.7196 33.2456 50.9577 32.6089 50.9568ZM32.6089 46.6444C32.1436 46.6454 31.6976 46.8307 31.3685 47.1597C31.0395 47.4887 30.8541 47.9347 30.8529 48.4C30.8516 48.644 30.9019 48.8856 31.0006 49.1088C31.0992 49.332 31.244 49.5319 31.4253 49.6952C31.752 49.9823 32.172 50.141 32.607 50.1415C33.042 50.142 33.4623 49.9844 33.7897 49.698C34.0537 49.4604 34.2393 49.1483 34.3219 48.8029C34.4044 48.4574 34.3801 48.0951 34.252 47.7638C34.124 47.4326 33.8983 47.1481 33.6048 46.948C33.3114 46.7479 32.9641 46.6418 32.6089 46.6436V46.6444Z"/>
</mask>
<path d="M32.6089 50.9568C32.0092 50.9584 31.4279 50.75 30.9657 50.3679C30.5036 49.9857 30.1897 49.4538 30.0786 48.8645C29.9675 48.2752 30.0662 47.6656 30.3575 47.1414C30.6488 46.6172 31.1144 46.2115 31.6735 45.9946C32.2326 45.7777 32.8499 45.7634 33.4185 45.954C33.9871 46.1446 34.4711 46.5283 34.7864 47.0383C35.1018 47.5484 35.2287 48.1528 35.1451 48.7466C35.0616 49.3405 34.7728 49.8864 34.3289 50.2896C33.8594 50.7196 33.2456 50.9577 32.6089 50.9568ZM32.6089 46.6444C32.1436 46.6454 31.6976 46.8307 31.3685 47.1597C31.0395 47.4887 30.8541 47.9347 30.8529 48.4C30.8516 48.644 30.9019 48.8856 31.0006 49.1088C31.0992 49.332 31.244 49.5319 31.4253 49.6952C31.752 49.9823 32.172 50.141 32.607 50.1415C33.042 50.142 33.4623 49.9844 33.7897 49.698C34.0537 49.4604 34.2393 49.1483 34.3219 48.8029C34.4044 48.4574 34.3801 48.0951 34.252 47.7638C34.124 47.4326 33.8983 47.1481 33.6048 46.948C33.3114 46.7479 32.9641 46.6418 32.6089 46.6436V46.6444Z" fill="#09AFF4"/>
<path d="M32.6089 50.9568L32.6104 49.9568L32.6063 49.9568L32.6089 50.9568ZM34.3289 50.2896L33.6565 49.5494L33.6535 49.5521L34.3289 50.2896ZM32.6089 46.6444L32.6112 47.6444L33.6089 47.6421V46.6444H32.6089ZM30.8529 48.4L31.8529 48.4054L31.8529 48.4025L30.8529 48.4ZM31.4253 49.6952L30.7561 50.4383L30.7652 50.4463L31.4253 49.6952ZM33.7897 49.698L34.4482 50.4508L34.4586 50.4414L33.7897 49.698ZM32.6089 46.6436L32.6038 45.6436L31.6089 45.6487V46.6436H32.6089ZM32.6063 49.9568C32.2401 49.9578 31.8852 49.8305 31.603 49.5972L30.3285 51.1385C30.9706 51.6695 31.7783 51.959 32.6115 51.9568L32.6063 49.9568ZM31.603 49.5972C31.3208 49.3639 31.1292 49.0391 31.0613 48.6793L29.0959 49.0498C29.2503 49.8686 29.6864 50.6075 30.3285 51.1385L31.603 49.5972ZM31.0613 48.6793C30.9935 48.3194 31.0537 47.9472 31.2316 47.6272L29.4834 46.6557C29.0787 47.384 28.9416 48.231 29.0959 49.0498L31.0613 48.6793ZM31.2316 47.6272C31.4095 47.3071 31.6937 47.0594 32.0351 46.9269L31.3118 45.0623C30.535 45.3636 29.8881 45.9273 29.4834 46.6557L31.2316 47.6272ZM32.0351 46.9269C32.3765 46.7945 32.7535 46.7857 33.1006 46.9021L33.7364 45.0059C32.9464 44.741 32.0886 44.761 31.3118 45.0623L32.0351 46.9269ZM33.1006 46.9021C33.4478 47.0185 33.7433 47.2528 33.9359 47.5642L35.637 46.5125C35.1988 45.8038 34.5264 45.2708 33.7364 45.0059L33.1006 46.9021ZM33.9359 47.5642C34.1284 47.8757 34.2059 48.2447 34.1549 48.6073L36.1354 48.886C36.2515 48.0609 36.0752 47.2212 35.637 46.5125L33.9359 47.5642ZM34.1549 48.6073C34.1039 48.9699 33.9275 49.3032 33.6565 49.5494L35.0013 51.0298C35.6181 50.4695 36.0193 49.7111 36.1354 48.886L34.1549 48.6073ZM33.6535 49.5521C33.3688 49.8129 32.9965 49.9573 32.6104 49.9568L32.6075 51.9568C33.4947 51.9581 34.3501 51.6263 35.0043 51.027L33.6535 49.5521ZM32.6067 45.6444C31.8769 45.6461 31.1776 45.9366 30.6615 46.4525L32.0756 47.8669C32.2177 47.7249 32.4103 47.6448 32.6112 47.6444L32.6067 45.6444ZM30.6615 46.4525C30.1455 46.9685 29.8547 47.6678 29.8529 48.3975L31.8529 48.4025C31.8534 48.2016 31.9335 48.009 32.0756 47.8669L30.6615 46.4525ZM29.8529 48.3946C29.8509 48.7797 29.9302 49.1608 30.0859 49.513L31.9152 48.7046C31.8736 48.6104 31.8523 48.5084 31.8529 48.4054L29.8529 48.3946ZM30.0859 49.513C30.2416 49.8653 30.47 50.1806 30.7561 50.4383L32.0945 48.9521C32.018 48.8832 31.9569 48.7988 31.9152 48.7046L30.0859 49.513ZM30.7652 50.4463C31.2741 50.8936 31.9283 51.1407 32.6058 51.1415L32.6082 49.1415C32.4158 49.1412 32.23 49.0711 32.0855 48.9441L30.7652 50.4463ZM32.6058 51.1415C33.2834 51.1423 33.9381 50.8968 34.4481 50.4507L33.1313 48.9453C32.9865 49.072 32.8006 49.1417 32.6082 49.1415L32.6058 51.1415ZM34.4586 50.4414C34.8733 50.0683 35.1648 49.5779 35.2945 49.0353L33.3493 48.5704C33.3138 48.7186 33.2342 48.8526 33.1209 48.9546L34.4586 50.4414ZM35.2945 49.0353C35.4242 48.4928 35.3859 47.9236 35.1847 47.4032L33.3193 48.1244C33.3743 48.2666 33.3847 48.4221 33.3493 48.5704L35.2945 49.0353ZM35.1847 47.4032C34.9836 46.8829 34.6291 46.436 34.1681 46.1218L33.0415 47.7742C33.1674 47.8601 33.2643 47.9822 33.3193 48.1244L35.1847 47.4032ZM34.1681 46.1218C33.7072 45.8075 33.1617 45.6408 32.6038 45.6436L32.614 47.6436C32.7665 47.6428 32.9155 47.6884 33.0415 47.7742L34.1681 46.1218ZM31.6089 46.6436V46.6444H33.6089V46.6436H31.6089Z" fill="#09AFF4" mask="url(#path-39-inside-18_244_2698)"/>
<mask id="path-41-inside-19_244_2698" fill="white">
<path d="M34.9962 56.034H29.7378C29.232 56.0341 28.7467 55.8339 28.3881 55.4771C28.0295 55.1204 27.8268 54.6362 27.8242 54.1304C27.825 53.1392 28.1332 52.1726 28.7063 51.3638C29.2795 50.5551 30.0893 49.944 31.0242 49.6148C31.0925 49.5908 31.1659 49.5859 31.2368 49.6004C31.3077 49.6149 31.3733 49.6483 31.4266 49.6972C31.7538 49.9829 32.1734 50.1404 32.6078 50.1404C33.0422 50.1404 33.4619 49.9829 33.789 49.6972C33.8424 49.6477 33.9083 49.6137 33.9795 49.5989C34.0508 49.5841 34.1247 49.5891 34.1934 49.6132C35.2148 49.9736 36.084 50.6692 36.6594 51.5868C36.6891 51.6313 36.7095 51.6813 36.7195 51.7339C36.7295 51.7864 36.7289 51.8405 36.7176 51.8928C36.7064 51.9451 36.6847 51.9946 36.654 52.0384C36.6233 52.0822 36.584 52.1194 36.5387 52.1478C36.4933 52.1761 36.4427 52.1951 36.3899 52.2036C36.337 52.2121 36.283 52.2098 36.2311 52.1971C36.1791 52.1843 36.1303 52.1612 36.0874 52.1292C36.0445 52.0972 36.0085 52.0569 35.9814 52.0108C35.5429 51.3116 34.8984 50.7656 34.1366 50.448C33.6917 50.7684 33.1573 50.9409 32.609 50.9409C32.0607 50.9409 31.5263 50.7684 31.0814 50.448C30.3545 50.7505 29.7333 51.2613 29.2961 51.9162C28.8589 52.571 28.6253 53.3406 28.6246 54.128C28.6263 54.4221 28.7444 54.7035 28.9531 54.9107C29.1618 55.1179 29.4441 55.234 29.7382 55.2336H34.9962C35.1023 55.2336 35.204 55.2757 35.2791 55.3507C35.3541 55.4257 35.3962 55.5275 35.3962 55.6336C35.3962 55.7397 35.3541 55.8414 35.2791 55.9164C35.204 55.9914 35.1023 56.0336 34.9962 56.0336V56.034Z"/>
</mask>
<path d="M34.9962 56.034H29.7378C29.232 56.0341 28.7467 55.8339 28.3881 55.4771C28.0295 55.1204 27.8268 54.6362 27.8242 54.1304C27.825 53.1392 28.1332 52.1726 28.7063 51.3638C29.2795 50.5551 30.0893 49.944 31.0242 49.6148C31.0925 49.5908 31.1659 49.5859 31.2368 49.6004C31.3077 49.6149 31.3733 49.6483 31.4266 49.6972C31.7538 49.9829 32.1734 50.1404 32.6078 50.1404C33.0422 50.1404 33.4619 49.9829 33.789 49.6972C33.8424 49.6477 33.9083 49.6137 33.9795 49.5989C34.0508 49.5841 34.1247 49.5891 34.1934 49.6132C35.2148 49.9736 36.084 50.6692 36.6594 51.5868C36.6891 51.6313 36.7095 51.6813 36.7195 51.7339C36.7295 51.7864 36.7289 51.8405 36.7176 51.8928C36.7064 51.9451 36.6847 51.9946 36.654 52.0384C36.6233 52.0822 36.584 52.1194 36.5387 52.1478C36.4933 52.1761 36.4427 52.1951 36.3899 52.2036C36.337 52.2121 36.283 52.2098 36.2311 52.1971C36.1791 52.1843 36.1303 52.1612 36.0874 52.1292C36.0445 52.0972 36.0085 52.0569 35.9814 52.0108C35.5429 51.3116 34.8984 50.7656 34.1366 50.448C33.6917 50.7684 33.1573 50.9409 32.609 50.9409C32.0607 50.9409 31.5263 50.7684 31.0814 50.448C30.3545 50.7505 29.7333 51.2613 29.2961 51.9162C28.8589 52.571 28.6253 53.3406 28.6246 54.128C28.6263 54.4221 28.7444 54.7035 28.9531 54.9107C29.1618 55.1179 29.4441 55.234 29.7382 55.2336H34.9962C35.1023 55.2336 35.204 55.2757 35.2791 55.3507C35.3541 55.4257 35.3962 55.5275 35.3962 55.6336C35.3962 55.7397 35.3541 55.8414 35.2791 55.9164C35.204 55.9914 35.1023 56.0336 34.9962 56.0336V56.034Z" fill="#09AFF4"/>
<path d="M34.9962 56.034V57.034H35.9962V56.034H34.9962ZM29.7378 56.034V55.034H29.7376L29.7378 56.034ZM27.8242 54.1304L26.8242 54.1295L26.8242 54.1354L27.8242 54.1304ZM31.0242 49.6148L30.6934 48.6711L30.6921 48.6716L31.0242 49.6148ZM31.4266 49.6972L30.7515 50.4349L30.76 50.4427L30.7688 50.4503L31.4266 49.6972ZM33.789 49.6972L34.4469 50.4503L34.4579 50.4407L34.4687 50.4307L33.789 49.6972ZM34.1934 49.6132L34.5262 48.6702L34.5247 48.6697L34.1934 49.6132ZM36.6594 51.5868L35.8122 52.1181L35.8196 52.1298L35.8273 52.1414L36.6594 51.5868ZM35.9814 52.0108L36.8443 51.5054L36.8366 51.4923L36.8286 51.4794L35.9814 52.0108ZM34.1366 50.448L34.5215 49.525L34.0056 49.3099L33.5521 49.6366L34.1366 50.448ZM31.0814 50.448L31.6659 49.6366L31.2128 49.3102L30.6972 49.5247L31.0814 50.448ZM28.6246 54.128L27.6246 54.1271L27.6246 54.1337L28.6246 54.128ZM29.7382 55.2336V54.2336L29.7368 54.2336L29.7382 55.2336ZM34.9962 56.0336V55.0336H33.9962V56.0336H34.9962ZM34.9962 55.034H29.7378V57.034H34.9962V55.034ZM29.7376 55.034C29.4962 55.034 29.2645 54.9385 29.0934 54.7682L27.6829 56.1861C28.2289 56.7293 28.9678 57.0341 29.738 57.034L29.7376 55.034ZM29.0934 54.7682C28.9222 54.5979 28.8254 54.3668 28.8242 54.1254L26.8242 54.1354C26.8281 54.9056 27.1368 55.6429 27.6829 56.1861L29.0934 54.7682ZM28.8242 54.1312C28.8249 53.3468 29.0687 52.582 29.5222 51.942L27.8904 50.7857C27.1977 51.7632 26.8252 52.9315 26.8242 54.1295L28.8242 54.1312ZM29.5222 51.942C29.9758 51.3021 30.6166 50.8185 31.3564 50.558L30.6921 48.6716C29.562 49.0695 28.5832 49.8081 27.8904 50.7857L29.5222 51.942ZM31.3551 50.5585C31.2527 50.5944 31.1425 50.6018 31.0362 50.58L31.4374 48.6207C31.1894 48.5699 30.9323 48.5873 30.6934 48.6711L31.3551 50.5585ZM31.0362 50.58C30.9299 50.5583 30.8315 50.5081 30.7515 50.4349L32.1018 48.9595C31.915 48.7886 31.6854 48.6715 31.4374 48.6207L31.0362 50.58ZM30.7688 50.4503C31.2782 50.8952 31.9315 51.1404 32.6078 51.1404V49.1404C32.4154 49.1404 32.2294 49.0706 32.0845 48.944L30.7688 50.4503ZM32.6078 51.1404C33.2841 51.1404 33.9375 50.8952 34.4469 50.4503L33.1312 48.944C32.9862 49.0706 32.8003 49.1404 32.6078 49.1404V51.1404ZM34.4687 50.4307C34.3886 50.5049 34.2898 50.5558 34.1829 50.578L33.7762 48.6198C33.5268 48.6716 33.2962 48.7905 33.1093 48.9637L34.4687 50.4307ZM34.1829 50.578C34.076 50.6002 33.9651 50.5929 33.8621 50.5567L34.5247 48.6697C34.2844 48.5852 34.0256 48.568 33.7762 48.6198L34.1829 50.578ZM33.8607 50.5562C34.669 50.8414 35.3568 51.3919 35.8122 52.1181L37.5066 51.0555C36.8111 49.9465 35.7606 49.1057 34.5262 48.6702L33.8607 50.5562ZM35.8273 52.1414C35.7828 52.0746 35.7521 51.9996 35.7371 51.9207L37.7019 51.547C37.6669 51.3631 37.5954 51.188 37.4915 51.0321L35.8273 52.1414ZM35.7371 51.9207C35.7221 51.8419 35.7231 51.7608 35.74 51.6824L37.6952 52.1032C37.7346 51.9202 37.7369 51.731 37.7019 51.547L35.7371 51.9207ZM35.74 51.6824C35.7569 51.6039 35.7893 51.5296 35.8355 51.4639L37.4725 52.6129C37.5801 52.4596 37.6558 52.2863 37.6952 52.1032L35.74 51.6824ZM35.8355 51.4639C35.8816 51.3982 35.9404 51.3425 36.0084 51.2999L37.0689 52.9956C37.2277 52.8963 37.3649 52.7662 37.4725 52.6129L35.8355 51.4639ZM36.0084 51.2999C36.0765 51.2574 36.1524 51.2289 36.2316 51.2162L36.5481 53.191C36.733 53.1614 36.9101 53.0949 37.0689 52.9956L36.0084 51.2999ZM36.2316 51.2162C36.3109 51.2035 36.3919 51.2068 36.4698 51.226L35.9924 53.1681C36.1742 53.2128 36.3631 53.2206 36.5481 53.191L36.2316 51.2162ZM36.4698 51.226C36.5477 51.2451 36.621 51.2797 36.6854 51.3277L35.4894 52.9307C35.6395 53.0427 35.8106 53.1234 35.9924 53.1681L36.4698 51.226ZM36.6854 51.3277C36.7498 51.3758 36.8038 51.4362 36.8443 51.5054L35.1185 52.5161C35.2131 52.6777 35.3392 52.8187 35.4894 52.9307L36.6854 51.3277ZM36.8286 51.4794C36.2802 50.605 35.4741 49.9222 34.5215 49.525L33.7518 51.371C34.3226 51.609 34.8056 52.0181 35.1343 52.5421L36.8286 51.4794ZM33.5521 49.6366C33.2775 49.8344 32.9475 49.9409 32.609 49.9409V51.9409C33.3671 51.9409 34.106 51.7025 34.7211 51.2594L33.5521 49.6366ZM32.609 49.9409C32.2705 49.9409 31.9406 49.8344 31.6659 49.6366L30.4969 51.2594C31.1121 51.7025 31.8509 51.9409 32.609 51.9409V49.9409ZM30.6972 49.5247C29.7881 49.9031 29.0112 50.5419 28.4644 51.3609L30.1278 52.4714C30.4554 51.9807 30.9209 51.5979 31.4656 51.3712L30.6972 49.5247ZM28.4644 51.3609C27.9177 52.1799 27.6255 53.1424 27.6246 54.1271L29.6246 54.1288C29.6251 53.5388 29.8002 52.9621 30.1278 52.4714L28.4644 51.3609ZM27.6246 54.1337C27.6278 54.6923 27.8522 55.2268 28.2486 55.6204L29.6577 54.2011C29.6367 54.1802 29.6248 54.1518 29.6246 54.1222L27.6246 54.1337ZM28.2486 55.6204C28.645 56.0139 29.1811 56.2344 29.7397 56.2336L29.7368 54.2336C29.7071 54.2336 29.6787 54.2219 29.6577 54.2011L28.2486 55.6204ZM29.7382 56.2336H34.9962V54.2336H29.7382V56.2336ZM34.9962 56.2336C34.8371 56.2336 34.6845 56.1704 34.572 56.0578L35.9862 54.6436C35.7236 54.3811 35.3675 54.2336 34.9962 54.2336V56.2336ZM34.572 56.0578C34.4594 55.9453 34.3962 55.7927 34.3962 55.6336H36.3962C36.3962 55.2623 36.2487 54.9062 35.9862 54.6436L34.572 56.0578ZM34.3962 55.6336C34.3962 55.4744 34.4594 55.3218 34.572 55.2093L35.9862 56.6235C36.2487 56.361 36.3962 56.0049 36.3962 55.6336H34.3962ZM34.572 55.2093C34.6845 55.0968 34.8371 55.0336 34.9962 55.0336V57.0336C35.3675 57.0336 35.7236 56.8861 35.9862 56.6235L34.572 55.2093ZM33.9962 56.0336V56.034H35.9962V56.0336H33.9962Z" fill="#09AFF4" mask="url(#path-41-inside-19_244_2698)"/>
<path d="M50.3701 48.4008L50.0693 48.4003C50.0693 48.3994 50.0693 48.3986 50.0693 48.3977C50.0693 48.3974 50.0693 48.3971 50.0693 48.3968L49.8697 48.398L49.5693 48.4M50.3701 48.4008L50.0694 48.4107C50.0694 48.7213 50.0045 49.0285 49.8788 49.3126C49.7659 49.5679 49.6062 49.7993 49.4083 49.9952C49.3826 50.0206 49.3563 50.0455 49.3293 50.0697L49.3255 50.0731L49.3255 50.073C48.9076 50.4405 48.3703 50.6432 47.8139 50.6433L47.8137 50.6982V50.9568M50.3701 48.4008C50.3691 49.0784 50.0994 49.728 49.6202 50.2071C49.141 50.6862 48.4914 50.9558 47.8137 50.9568M50.3701 48.4008C50.3482 47.7368 50.069 47.1074 49.5915 46.6455C49.1141 46.1836 48.4758 45.9254 47.8115 45.9254C47.1472 45.9254 46.5089 46.1836 46.0315 46.6455L47.8129 50.9568M47.8137 50.9568L47.8135 50.7787L47.8129 50.9568M47.8137 50.9568H47.8129M47.8129 50.9568V50.6433C47.8121 50.6433 47.8113 50.6433 47.8104 50.6433C47.2528 50.6425 46.7147 50.4383 46.2969 50.0689L46.2935 50.0659L46.2935 50.0659C46.2677 50.0426 46.2424 50.0188 46.2178 49.9944L46.3597 49.8522C46.3819 49.8744 46.4046 49.8959 46.4276 49.917C46.4283 49.9176 46.429 49.9182 46.4297 49.9188C46.8069 50.2619 47.2986 50.4542 47.8107 50.4567C47.8117 50.4568 47.8126 50.4568 47.8136 50.4568C48.325 50.4559 48.8165 50.2649 49.1936 49.9231C49.1944 49.9224 49.1951 49.9217 49.1959 49.921C49.2199 49.8991 49.2436 49.8766 49.2667 49.8535C49.4479 49.6723 49.5919 49.4607 49.6938 49.2308C49.8074 48.9741 49.8685 48.6946 49.8701 48.4086C49.87 48.4055 49.8699 48.4024 49.8697 48.3992L49.5693 48.4M49.5693 48.4C49.5709 48.6445 49.5205 48.8867 49.4216 49.1104C49.3226 49.334 49.1774 49.5342 48.9953 49.6976L46.0529 48.4008C46.0539 47.9346 46.2397 47.4879 46.5697 47.1586C46.8997 46.8293 47.3468 46.6444 47.8129 46.6444C48.2783 46.6453 48.7244 46.8306 49.0536 47.1596C49.3827 47.4886 49.5682 47.9346 49.5693 48.4Z" fill="#09AFF4" stroke="#09AFF4"/>
<mask id="path-44-inside-20_244_2698" fill="white">
<path d="M50.6831 56.034H45.4247C45.3186 56.034 45.2169 55.9918 45.1419 55.9168C45.0668 55.8418 45.0247 55.7401 45.0247 55.634C45.0247 55.5279 45.0668 55.4261 45.1419 55.3511C45.2169 55.2761 45.3186 55.234 45.4247 55.234H50.6831C50.977 55.2343 51.2591 55.1183 51.4678 54.9113C51.6764 54.7043 51.7947 54.4231 51.7967 54.1292C51.796 53.3418 51.5623 52.5723 51.1251 51.9174C50.688 51.2626 50.0668 50.7517 49.3399 50.4492C48.8951 50.7697 48.3607 50.9421 47.8125 50.9421C47.2643 50.9421 46.7299 50.7697 46.2851 50.4492C45.523 50.7664 44.8783 51.3125 44.4399 52.012C44.3837 52.1021 44.2939 52.1663 44.1904 52.1903C44.0869 52.2143 43.9781 52.1962 43.8879 52.14C43.7977 52.0837 43.7336 51.994 43.7096 51.8905C43.6856 51.787 43.7037 51.6781 43.7599 51.588C44.3356 50.6705 45.2049 49.9749 46.2263 49.6144C46.295 49.5902 46.3691 49.5852 46.4404 49.6C46.5117 49.6148 46.5777 49.6488 46.6311 49.6984C46.958 49.9836 47.3772 50.1408 47.8111 50.1408C48.245 50.1408 48.6642 49.9836 48.9911 49.6984C49.0445 49.6495 49.1102 49.616 49.1811 49.6015C49.252 49.5869 49.3256 49.592 49.3939 49.616C50.3285 49.9451 51.1382 50.5558 51.7113 51.3642C52.2844 52.1725 52.5927 53.1387 52.5939 54.1296C52.5915 54.635 52.3892 55.119 52.0312 55.4758C51.6732 55.8326 51.1885 56.0332 50.6831 56.034Z"/>
</mask>
<path d="M50.6831 56.034H45.4247C45.3186 56.034 45.2169 55.9918 45.1419 55.9168C45.0668 55.8418 45.0247 55.7401 45.0247 55.634C45.0247 55.5279 45.0668 55.4261 45.1419 55.3511C45.2169 55.2761 45.3186 55.234 45.4247 55.234H50.6831C50.977 55.2343 51.2591 55.1183 51.4678 54.9113C51.6764 54.7043 51.7947 54.4231 51.7967 54.1292C51.796 53.3418 51.5623 52.5723 51.1251 51.9174C50.688 51.2626 50.0668 50.7517 49.3399 50.4492C48.8951 50.7697 48.3607 50.9421 47.8125 50.9421C47.2643 50.9421 46.7299 50.7697 46.2851 50.4492C45.523 50.7664 44.8783 51.3125 44.4399 52.012C44.3837 52.1021 44.2939 52.1663 44.1904 52.1903C44.0869 52.2143 43.9781 52.1962 43.8879 52.14C43.7977 52.0837 43.7336 51.994 43.7096 51.8905C43.6856 51.787 43.7037 51.6781 43.7599 51.588C44.3356 50.6705 45.2049 49.9749 46.2263 49.6144C46.295 49.5902 46.3691 49.5852 46.4404 49.6C46.5117 49.6148 46.5777 49.6488 46.6311 49.6984C46.958 49.9836 47.3772 50.1408 47.8111 50.1408C48.245 50.1408 48.6642 49.9836 48.9911 49.6984C49.0445 49.6495 49.1102 49.616 49.1811 49.6015C49.252 49.5869 49.3256 49.592 49.3939 49.616C50.3285 49.9451 51.1382 50.5558 51.7113 51.3642C52.2844 52.1725 52.5927 53.1387 52.5939 54.1296C52.5915 54.635 52.3892 55.119 52.0312 55.4758C51.6732 55.8326 51.1885 56.0332 50.6831 56.034Z" fill="#09AFF4"/>
<path d="M50.6831 56.034V57.034L50.6846 57.034L50.6831 56.034ZM50.6831 55.234L50.6842 54.234H50.6831V55.234ZM51.7967 54.1292L52.7967 54.136L52.7967 54.1283L51.7967 54.1292ZM49.3399 50.4492L49.7242 49.5259L49.2085 49.3113L48.7553 49.6378L49.3399 50.4492ZM46.2851 50.4492L46.8697 49.6378L46.4165 49.3113L45.9008 49.526L46.2851 50.4492ZM44.4399 52.012L43.5926 51.4809L43.5913 51.4829L44.4399 52.012ZM43.7599 51.588L42.9128 51.0565L42.9113 51.0589L43.7599 51.588ZM46.2263 49.6144L45.8942 48.6711L45.8935 48.6714L46.2263 49.6144ZM46.6311 49.6984L45.9512 50.4316L45.9622 50.4419L45.9736 50.4519L46.6311 49.6984ZM48.9911 49.6984L49.6486 50.4519L49.6576 50.4439L49.6665 50.4358L48.9911 49.6984ZM49.3939 49.616L49.726 48.6727L49.7255 48.6725L49.3939 49.616ZM52.5939 54.1296L53.5939 54.1344L53.5939 54.1284L52.5939 54.1296ZM50.6831 55.034H45.4247V57.034H50.6831V55.034ZM45.4247 55.034C45.5838 55.034 45.7364 55.0972 45.849 55.2097L44.4347 56.6239C44.6973 56.8865 45.0534 57.034 45.4247 57.034V55.034ZM45.849 55.2097C45.9615 55.3222 46.0247 55.4748 46.0247 55.634H44.0247C44.0247 56.0053 44.1722 56.3614 44.4347 56.6239L45.849 55.2097ZM46.0247 55.634C46.0247 55.7931 45.9615 55.9457 45.849 56.0582L44.4347 54.644C44.1722 54.9066 44.0247 55.2627 44.0247 55.634H46.0247ZM45.849 56.0582C45.7364 56.1708 45.5838 56.234 45.4247 56.234V54.234C45.0534 54.234 44.6973 54.3815 44.4347 54.644L45.849 56.0582ZM45.4247 56.234H50.6831V54.234H45.4247V56.234ZM50.682 56.234C51.2402 56.2346 51.7759 56.0143 52.1721 55.6212L50.7635 54.2014C50.7424 54.2223 50.7139 54.234 50.6842 54.234L50.682 56.234ZM52.1721 55.6212C52.5683 55.2281 52.7929 54.6941 52.7967 54.136L50.7967 54.1223C50.7965 54.152 50.7846 54.1804 50.7635 54.2014L52.1721 55.6212ZM52.7967 54.1283C52.7958 53.1436 52.5036 52.1811 51.9568 51.3622L50.2934 52.4727C50.6211 52.9634 50.7962 53.5401 50.7967 54.1301L52.7967 54.1283ZM51.9568 51.3622C51.4101 50.5432 50.6333 49.9043 49.7242 49.5259L48.9556 51.3724C49.5004 51.5991 49.9658 51.9819 50.2934 52.4727L51.9568 51.3622ZM48.7553 49.6378C48.4807 49.8357 48.1509 49.9421 47.8125 49.9421V51.9421C48.5706 51.9421 49.3094 51.7037 49.9245 51.2605L48.7553 49.6378ZM47.8125 49.9421C47.4741 49.9421 47.1442 49.8357 46.8697 49.6378L45.7005 51.2605C46.3156 51.7037 47.0544 51.9421 47.8125 51.9421V49.9421ZM45.9008 49.526C44.9475 49.9228 44.1409 50.6059 43.5926 51.4809L45.2872 52.543C45.6156 52.0191 46.0986 51.61 46.6694 51.3724L45.9008 49.526ZM43.5913 51.4829C43.6754 51.348 43.8097 51.2521 43.9645 51.2161L44.4163 53.1644C44.7782 53.0805 45.0919 52.8563 45.2885 52.5411L43.5913 51.4829ZM43.9645 51.2161C44.1194 51.1802 44.2821 51.2073 44.417 51.2914L43.3588 52.9885C43.674 53.1851 44.0544 53.2484 44.4163 53.1644L43.9645 51.2161ZM44.417 51.2914C44.5519 51.3755 44.6478 51.5098 44.6837 51.6646L42.7354 52.1164C42.8193 52.4782 43.0436 52.792 43.3588 52.9885L44.417 51.2914ZM44.6837 51.6646C44.7196 51.8194 44.6926 51.9822 44.6085 52.1171L42.9113 51.0589C42.7148 51.3741 42.6515 51.7545 42.7354 52.1164L44.6837 51.6646ZM44.607 52.1195C45.0626 51.3933 45.7507 50.8427 46.5591 50.5574L45.8935 48.6714C44.6591 49.107 43.6085 49.9477 42.9128 51.0565L44.607 52.1195ZM46.5584 50.5576C46.4553 50.5939 46.3442 50.6014 46.2372 50.5792L46.6436 48.6209C46.3939 48.5691 46.1348 48.5864 45.8942 48.6711L46.5584 50.5576ZM46.2372 50.5792C46.1302 50.557 46.0313 50.5059 45.9512 50.4316L47.311 48.9651C47.1241 48.7917 46.8933 48.6727 46.6436 48.6209L46.2372 50.5792ZM45.9736 50.4519C46.4827 50.8961 47.1355 51.1408 47.8111 51.1408V49.1408C47.619 49.1408 47.4333 49.0712 47.2886 48.9449L45.9736 50.4519ZM47.8111 51.1408C48.4867 51.1408 49.1395 50.8961 49.6486 50.4519L48.3336 48.9449C48.1889 49.0712 48.0032 49.1408 47.8111 49.1408V51.1408ZM49.6665 50.4358C49.5864 50.5092 49.4879 50.5594 49.3815 50.5812L48.9807 48.6217C48.7324 48.6725 48.5026 48.7898 48.3157 48.9609L49.6665 50.4358ZM49.3815 50.5812C49.2751 50.6029 49.1648 50.5954 49.0623 50.5594L49.7255 48.6725C49.4864 48.5885 49.229 48.571 48.9807 48.6217L49.3815 50.5812ZM49.0618 50.5592C49.8014 50.8196 50.442 51.3029 50.8955 51.9425L52.527 50.7858C51.8343 49.8088 50.8557 49.0705 49.726 48.6727L49.0618 50.5592ZM50.8955 51.9425C51.349 52.5822 51.593 53.3467 51.5939 54.1308L53.5939 54.1284C53.5925 52.9307 53.2198 51.7629 52.527 50.7858L50.8955 51.9425ZM51.5939 54.1248C51.5927 54.3661 51.4962 54.5971 51.3253 54.7675L52.7371 56.184C53.2822 55.6408 53.5902 54.9039 53.5939 54.1344L51.5939 54.1248ZM51.3253 54.7675C51.1543 54.9378 50.923 55.0336 50.6816 55.034L50.6846 57.034C51.4541 57.0329 52.192 56.7273 52.7371 56.184L51.3253 54.7675Z" fill="#09AFF4" mask="url(#path-44-inside-20_244_2698)"/>
</svg>
