<svg width="50" height="50" viewBox="0 0 50 50" fill="none" xmlns="http://www.w3.org/2000/svg">
<path d="M40 0C34.5312 0 30.0664 4.42188 30 9.875L15.9062 16.9375C14.25 15.7188 12.207 15 10 15C4.48828 15 0 19.4883 0 25C0 30.5117 4.48828 35 10 35C12.207 35 14.25 34.2812 15.9062 33.0625L30 40.125C30.0664 45.5781 34.5312 50 40 50C45.5117 50 50 45.5117 50 40C50 34.4883 45.5117 30 40 30C37.875 30 35.9023 30.6758 34.2812 31.8125L20.625 25L34.2812 18.1875C35.9023 19.3242 37.875 20 40 20C45.5117 20 50 15.5117 50 10C50 4.48828 45.5117 0 40 0ZM40 2C44.4297 2 48 5.57031 48 10C48 14.4297 44.4297 18 40 18C38.3633 18 36.8594 17.4922 35.5938 16.6562C35.4688 16.2383 35.0898 15.9492 34.6562 15.9375C34.6523 15.9336 34.6289 15.9414 34.625 15.9375C33.2305 14.6758 32.293 12.9102 32.0625 10.9375C32.2734 10.5859 32.25 10.1406 32 9.8125C32.1016 5.47266 35.6328 2 40 2ZM30.2188 12C30.5898 13.8086 31.4492 15.4375 32.6562 16.75L19.8125 23.1875C19.4727 21.3594 18.6562 19.7109 17.4688 18.375L30.2188 12ZM10 17C11.8516 17 13.5547 17.6094 14.9062 18.6562C14.918 18.6641 14.9258 18.6797 14.9375 18.6875C14.9453 18.707 14.957 18.7305 14.9688 18.75C15.0547 18.8555 15.1602 18.9375 15.2812 19C15.2852 19.0039 15.3086 18.9961 15.3125 19C16.8086 20.3281 17.7969 22.2227 17.9688 24.3438C17.8555 24.6172 17.8672 24.9258 18 25.1875C17.9805 25.2695 17.9688 25.3516 17.9688 25.4375C17.8477 27.6562 16.8398 29.6289 15.2812 31C15.1875 31.0586 15.1016 31.1328 15.0312 31.2188C13.6562 32.332 11.9141 33 10 33C5.57031 33 2 29.4297 2 25C2 20.5703 5.57031 17 10 17ZM19.8125 26.8125L32.6562 33.25C31.4492 34.5625 30.5898 36.1914 30.2188 38L17.4688 31.625C18.6562 30.2891 19.4727 28.6406 19.8125 26.8125ZM40 32C44.4297 32 48 35.5703 48 40C48 44.4297 44.4297 48 40 48C35.5703 48 32 44.4297 32 40C32 37.5938 33.0469 35.4336 34.7188 33.9688C34.7422 33.9492 34.7617 33.9297 34.7812 33.9062C34.7852 33.9023 34.8086 33.9102 34.8125 33.9062C34.9727 33.8398 35.1133 33.7305 35.2188 33.5938C36.5547 32.5977 38.1992 32 40 32Z" fill="#09AFF4"/>
</svg>
