<svg width="16" height="13" viewBox="0 0 16 13" fill="none" xmlns="http://www.w3.org/2000/svg">
<path d="M15.3417 0.000313821C15.1756 0.00590154 15.018 0.0842762 14.9021 0.218834L5.12424 11.2576L1.10069 6.71522C1.04178 6.64595 0.97121 6.59064 0.893125 6.55254C0.815039 6.51444 0.731004 6.49431 0.645942 6.49333C0.560879 6.49235 0.476499 6.51055 0.397743 6.54685C0.318987 6.58315 0.247438 6.63682 0.187287 6.70473C0.127135 6.77264 0.0795906 6.85341 0.0474371 6.94233C0.0152836 7.03124 -0.000832339 7.1265 3.30948e-05 7.22253C0.000898529 7.31856 0.018728 7.41343 0.0524772 7.50159C0.0862264 7.58974 0.135217 7.66941 0.19658 7.73592L4.67219 12.7887C4.7921 12.924 4.9547 13 5.12424 13C5.29379 13 5.45639 12.924 5.5763 12.7887L15.8063 1.23953C15.8987 1.13814 15.9618 1.00761 15.9873 0.865036C16.0129 0.722462 15.9997 0.574501 15.9494 0.440541C15.8992 0.306581 15.8143 0.192873 15.7059 0.114318C15.5974 0.0357631 15.4705 -0.00397405 15.3417 0.000313821Z" fill="#09AFF4"/>
</svg>
