<svg width="50" height="50" viewBox="0 0 50 50" fill="none" xmlns="http://www.w3.org/2000/svg">
<path d="M13.6349 0.408475C13.526 0.279002 13.3967 0.176273 13.2542 0.106178C13.1118 0.0360823 12.9591 0 12.8049 0C12.6506 0 12.4979 0.0360823 12.3555 0.106178C12.2131 0.176273 12.0837 0.279002 11.9748 0.408475L5.7545 7.73436L3.53783 5.17667C3.42896 5.0472 3.29961 4.94447 3.15717 4.87437C3.01474 4.80428 2.86203 4.76819 2.7078 4.76819C2.55357 4.76819 2.40086 4.80428 2.25843 4.87437C2.11599 4.94447 1.98663 5.0472 1.87777 5.17667L0.344654 6.99367C0.235411 7.1227 0.148732 7.27601 0.0895882 7.44482C0.0304447 7.61363 0 7.79462 0 7.9774C0 8.16019 0.0304447 8.34118 0.0895882 8.50998C0.148732 8.6788 0.235411 8.83211 0.344654 8.96113L4.99282 14.4469C5.22496 14.7073 5.53248 14.8525 5.85215 14.8525C6.17182 14.8525 6.47934 14.7073 6.71147 14.4469L8.23483 12.6414L15.2852 4.28553C15.5048 4.02497 15.6289 3.67241 15.6307 3.30417C15.6326 2.93593 15.5119 2.58166 15.295 2.31807L13.6349 0.408475ZM13.6349 18.8331C13.526 18.7037 13.3967 18.6009 13.2542 18.5308C13.1118 18.4608 12.9591 18.4247 12.8049 18.4247C12.6506 18.4247 12.4979 18.4608 12.3555 18.5308C12.2131 18.6009 12.0837 18.7037 11.9748 18.8331L5.7545 26.2053L3.53783 23.6476C3.42896 23.5182 3.29961 23.4154 3.15717 23.3453C3.01474 23.2752 2.86203 23.2392 2.7078 23.2392C2.55357 23.2392 2.40086 23.2752 2.25843 23.3453C2.11599 23.4154 1.98663 23.5182 1.87777 23.6476L0.344654 25.4646C0.235411 25.5937 0.148732 25.747 0.0895882 25.9158C0.0304447 26.0846 0 26.2656 0 26.4484C0 26.6312 0.0304447 26.8121 0.0895882 26.9809C0.148732 27.1498 0.235411 27.3031 0.344654 27.4321L4.98306 32.9294C5.2152 33.1899 5.52272 33.335 5.84238 33.335C6.16205 33.335 6.46957 33.1899 6.70171 32.9294L8.23483 31.1124L15.2852 22.7565C15.5042 22.4979 15.628 22.1473 15.6299 21.7809C15.6317 21.4146 15.5113 21.0622 15.295 20.8006L13.6349 18.8331ZM6.25252 38.8896C3.66478 38.8896 1.5067 41.3779 1.5067 44.4448C1.5067 47.5117 3.66478 50 6.25252 50C7.49565 50 8.68786 49.4147 9.56689 48.3729C10.4459 47.3311 10.9397 45.9181 10.9397 44.4448C10.9397 42.9715 10.4459 41.5585 9.56689 40.5167C8.68786 39.4749 7.49565 38.8896 6.25252 38.8896ZM48.4376 40.7414H20.3142C19.8998 40.7414 19.5024 40.9365 19.2094 41.2837C18.9164 41.631 18.7518 42.102 18.7518 42.5931V46.2965C18.7518 46.7877 18.9164 47.2587 19.2094 47.6059C19.5024 47.9532 19.8998 48.1483 20.3142 48.1483H48.4376C48.852 48.1483 49.2494 47.9532 49.5424 47.6059C49.8354 47.2587 50 46.7877 50 46.2965V42.5931C50 42.102 49.8354 41.631 49.5424 41.2837C49.2494 40.9365 48.852 40.7414 48.4376 40.7414ZM48.4376 3.70686H20.3142C19.8998 3.70686 19.5024 3.90195 19.2094 4.24922C18.9164 4.59649 18.7518 5.06748 18.7518 5.55859V9.26204C18.7518 9.75315 18.9164 10.2241 19.2094 10.5714C19.5024 10.9187 19.8998 11.1138 20.3142 11.1138H48.4376C48.852 11.1138 49.2494 10.9187 49.5424 10.5714C49.8354 10.2241 50 9.75315 50 9.26204V5.55859C50 5.06748 49.8354 4.59649 49.5424 4.24922C49.2494 3.90195 48.852 3.70686 48.4376 3.70686ZM48.4376 22.2241H20.3142C19.8998 22.2241 19.5024 22.4192 19.2094 22.7665C18.9164 23.1137 18.7518 23.5847 18.7518 24.0758V27.7793C18.7518 28.2704 18.9164 28.7414 19.2094 29.0887C19.5024 29.4359 19.8998 29.631 20.3142 29.631H48.4376C48.852 29.631 49.2494 29.4359 49.5424 29.0887C49.8354 28.7414 50 28.2704 50 27.7793V24.0758C50 23.5847 49.8354 23.1137 49.5424 22.7665C49.2494 22.4192 48.852 22.2241 48.4376 22.2241Z" fill="#09AFF4" fill-opacity="0.6"/>
</svg>
