<svg width="225" height="47" viewBox="0 0 225 47" fill="none" xmlns="http://www.w3.org/2000/svg">
<path d="M42.2112 45.9556C42.733 45.9453 43.2713 45.6554 43.7995 45.1004C45.0789 43.9507 46.1187 41.4374 47.104 39.0756C49.5505 33.2126 51.8621 27.0462 54.2266 20.9901C55.0302 18.9742 55.8832 17.1433 56.7741 15.5217C57.1226 15.0378 57.4769 14.6143 57.8347 14.254C57.9579 14.173 58.0782 14.1037 58.1995 14.0439L58.2125 14.0556C58.256 14.1308 58.2984 14.2088 58.3397 14.2915C58.8719 15.8173 59.3431 17.5118 59.7474 19.3544C60.246 21.7101 60.7076 24.1224 61.1509 26.5641C61.535 28.9071 61.9985 31.1026 62.5361 33.1258C62.7715 33.8455 63.0326 34.4921 63.3167 35.0588C63.536 35.4189 63.7675 35.7281 64.0095 35.9843C64.1488 36.1679 64.3019 36.283 64.4637 36.3257C65.0061 36.6373 65.5847 36.6618 66.1743 36.3982C66.6479 36.1589 67.1223 35.7958 67.5917 35.3137C68.3285 34.5672 69.0537 33.6267 69.7568 32.5057C70.5351 31.2845 71.3088 30.0482 72.0678 28.7527C73.2129 26.7957 74.3547 24.8385 75.5137 22.9442C76.2812 21.7678 77.0669 20.7483 77.8635 19.8953C78.0555 19.7597 78.2456 19.6446 78.4383 19.554L78.4417 19.5543C78.4698 19.6051 78.4978 19.6572 78.5255 19.7103C79.3541 22.1154 80.0982 24.7529 80.7506 27.5982C81.0775 28.9348 81.4067 30.2662 81.7568 31.561C82.0495 32.676 82.3748 33.7109 82.7303 34.6579C83.1371 35.7889 83.629 36.6533 84.183 37.2106C84.6132 37.6158 85.0767 37.8192 85.5586 37.8144C85.9596 37.8047 86.3699 37.6492 86.78 37.3514C87.1033 37.0966 87.4254 36.7956 87.745 36.4496C88.0504 36.0747 88.3492 35.6265 88.6378 35.1107C89.2405 34.1206 89.8182 32.9681 90.3611 31.673C91.0891 30.0064 91.7739 28.209 92.4502 26.4157C93.6739 23.1634 94.7711 19.6657 96.0113 16.4472C96.2738 15.8384 96.5448 15.2648 96.8231 14.729C97.1308 15.2684 97.4168 15.8652 97.7001 16.4854C98.1877 17.7571 98.6434 19.0783 99.0839 20.4597C99.618 22.1275 100.097 23.9148 100.577 25.6881C101.026 27.3538 101.477 29.0194 101.928 30.6848C102.137 31.4521 102.352 32.2157 102.582 32.941C103.163 34.7836 103.776 36.6193 104.589 37.883C104.849 38.2185 105.111 38.5393 105.374 38.8551C105.449 38.9151 105.525 38.9805 105.6 39.0452C105.894 39.1925 106.19 39.3232 106.488 39.4373C107.018 39.5159 107.569 39.3308 108.118 38.8896C108.426 38.6769 108.733 38.3786 109.034 37.9993C109.418 37.4967 109.792 36.9056 110.153 36.233C110.496 35.6167 110.824 34.9101 111.13 34.125C112.01 32.0005 112.86 29.7655 113.676 27.4295C114.35 25.474 115.01 23.4936 115.669 21.5126C116.358 19.4512 117.045 17.3712 117.779 15.3982L117.786 15.413C118.959 18.3596 120.055 21.501 121.139 24.6415C122.41 28.3161 123.589 32.2374 125.042 35.4975C125.429 36.3734 125.845 37.1517 126.286 37.8265C126.652 38.3588 127.033 38.8209 127.428 39.2107C127.822 39.5312 128.236 39.7328 128.662 39.8129C128.976 39.7898 129.29 39.7222 129.609 39.616C130.014 39.4248 130.42 39.1115 130.821 38.6814C131.529 37.8577 132.223 36.8591 132.894 35.6984C133.778 34.2189 134.635 32.5594 135.455 30.7362C137.226 26.9274 138.848 22.6655 140.489 18.5278C140.768 17.8493 141.048 17.1791 141.338 16.5382C141.465 17.0574 141.585 17.5902 141.704 18.1205C142.426 21.5694 143.076 25.1276 143.809 28.5556C144.076 29.799 144.347 31.0281 144.63 32.238C144.844 33.129 145.079 33.9718 145.334 34.7626C145.684 35.8862 146.11 36.7929 146.596 37.4469C146.82 37.7993 147.063 38.0708 147.32 38.2567C147.656 38.4974 148.009 38.6155 148.374 38.6085C149.017 38.5564 149.677 38.1725 150.324 37.4746C150.833 36.9835 151.337 36.4129 151.835 35.7655C153.75 33.2069 155.625 30.2659 157.444 26.9684C159.163 23.916 160.858 20.7433 162.624 17.8722C163.237 16.9133 163.867 16.0838 164.505 15.3916C164.683 15.2678 164.855 15.1684 165.032 15.0866C165.056 15.0886 165.081 15.0906 165.105 15.0926L165.132 15.1144C165.151 15.1461 165.169 15.1766 165.187 15.2112C165.408 15.8727 165.61 16.5841 165.793 17.3409C166.085 18.9169 166.341 20.5572 166.563 22.2548C166.789 23.9604 166.982 25.7077 167.204 27.4177C167.597 30.4616 168.026 33.5325 168.818 35.9864C169.17 37.0629 169.615 37.8627 170.124 38.3353C170.381 38.5944 170.657 38.7474 170.944 38.7903C171.301 38.8159 171.666 38.7558 172.033 38.6105C172.314 38.4083 172.594 38.1711 172.869 37.8998C173.132 37.6124 173.39 37.2747 173.643 36.8894C174.002 36.3547 174.35 35.7646 174.701 35.1914C176.125 32.7778 177.513 30.1302 178.856 27.2653C180.27 24.3339 181.636 21.2068 183.151 18.6202C183.501 18.1022 183.856 17.6346 184.216 17.2197C184.299 17.1592 184.382 17.1051 184.466 17.0553C185.314 19.487 185.942 22.3905 186.59 25.1862C187.219 27.8863 187.841 30.613 188.561 33.1567C189.372 36.0143 190.282 38.8405 191.605 40.3668C192.05 40.8342 192.53 41.1112 193.03 41.1906C193.32 41.1411 193.61 41.0575 193.899 40.9435C194.18 40.7218 194.46 40.4798 194.739 40.2183C195.174 39.6499 195.599 38.9703 196.006 38.1892C196.421 37.3471 196.819 36.4239 197.197 35.4286C198.167 33.0272 199.11 30.5692 200.076 28.1598C200.763 26.5211 201.45 24.8772 202.165 23.3071C203.118 21.1386 204.111 19.142 205.135 17.3334C205.29 17.1096 205.443 16.9064 205.6 16.717C206.138 18.4099 206.575 20.3299 207.03 22.1733C207.484 24.0166 207.936 25.8562 208.412 27.6529C209.164 30.4861 209.966 33.3034 211.001 35.5271C211.383 36.4093 211.817 37.1069 212.293 37.6003C212.534 37.872 212.796 38.0306 213.07 38.0714C213.165 38.1088 213.263 38.1411 213.36 38.1786C213.617 38.1429 213.876 38.0678 214.137 37.9535C214.387 37.7434 214.635 37.5214 214.88 37.2695C215.193 36.8944 215.49 36.3589 215.754 35.6936C216.141 34.763 216.507 33.7525 216.845 32.674C218.114 28.6287 219.287 24.3647 220.354 19.9228C220.862 17.8655 221.318 15.76 221.772 13.6514C221.987 12.644 222.18 11.6148 222.409 10.624C222.75 9.14663 223.085 7.67362 223.445 6.21688C223.494 5.95543 223.511 5.67217 223.492 5.42165C223.473 5.17113 223.42 4.97101 223.343 4.85974C223.248 4.69347 223.128 4.64006 223.004 4.70831C222.879 4.77655 222.757 4.96234 222.657 5.23501C221.913 7.52251 221.128 9.68488 220.313 11.8294C219.567 13.7932 218.79 15.6959 218.026 17.6192C216.679 20.998 215.343 24.4079 213.996 27.7862C213.94 27.6733 213.883 27.5581 213.828 27.4399C212.584 24.223 211.644 20.3551 210.709 16.5449C210.341 15.0482 209.98 13.5373 209.598 12.0637C209.22 10.6053 208.851 9.08423 208.296 7.98917C207.968 7.32273 207.587 6.85628 207.171 6.61095C206.507 6.23168 205.783 6.35477 205.063 6.9695C203.475 8.27065 202.12 11.0721 200.792 13.6942C200.065 15.1302 199.38 16.7513 198.69 18.308C197.397 21.2287 196.155 24.2844 194.914 27.3425C194.528 28.2666 194.145 29.1897 193.734 30.0307C193.612 29.8076 193.495 29.5726 193.38 29.3247C192.089 25.9011 191.166 21.6731 190.22 17.6036C189.753 15.5983 189.279 13.6073 188.766 11.6822C188.403 10.2722 187.977 9.02124 187.493 7.95251C187.376 7.66964 187.245 7.4336 187.102 7.24886C186.944 7.04894 186.786 6.85489 186.628 6.65554C186.385 6.36679 186.118 6.20879 185.837 6.18801C185.098 5.92946 184.313 6.14702 183.534 6.82624C181.827 8.20571 180.292 10.9532 178.868 13.8176C178.118 15.3251 177.386 16.8979 176.642 18.4212C175.209 21.4057 173.74 24.2107 172.239 26.8256C171.623 23.4995 171.267 19.8289 170.796 16.3249C170.524 14.2974 170.188 12.3767 169.791 10.5825C169.58 9.62871 169.344 8.72822 169.086 7.88622C168.914 7.359 168.727 6.87644 168.525 6.44218C168.246 5.8181 167.933 5.31153 167.594 4.93337C166.563 3.64639 165.23 3.78196 164.003 4.73485C162.278 6.07143 160.734 8.69286 159.209 11.2644C158.486 12.4849 157.776 13.7607 157.066 15.0313C155.7 17.4693 154.339 19.9118 152.943 22.2178C151.728 24.1441 150.481 25.8091 149.214 27.196C148.729 25.7432 148.302 24.1359 147.938 22.3936C147.252 19.0956 146.603 15.7456 145.907 12.4662C145.508 10.4366 145.048 8.53448 144.529 6.77637C144.375 6.31277 144.208 5.88917 144.027 5.50877C143.85 5.07399 143.636 4.76182 143.399 4.58919C143.121 4.20813 142.809 3.99923 142.479 3.97328C142.118 3.97339 141.751 4.06959 141.382 4.26077C140.664 4.64288 139.994 5.79962 139.374 6.82683C138.95 7.58032 138.541 8.42272 138.151 9.3452C136.821 12.3114 135.602 15.579 134.292 18.6006C133.001 21.6633 131.639 24.436 130.223 26.884C130.024 27.1758 129.824 27.451 129.619 27.7067L129.568 27.6593C129.166 27.0762 128.786 26.4011 128.431 25.639C127.306 22.7892 126.294 19.689 125.255 16.6488C124.095 13.2572 122.902 9.90727 121.644 6.74302C121.195 5.51043 120.698 4.42405 120.159 3.49687C119.647 2.661 119.046 2.23007 118.403 2.23826C117.891 2.23861 117.362 2.53666 116.845 3.11527C116.423 3.65119 116.009 4.26957 115.607 4.96523C115.425 5.2994 115.249 5.66512 115.079 6.05978C114.72 6.85408 114.386 7.73338 114.046 8.57366C113.708 9.40414 113.399 10.3007 113.084 11.1822C112.698 12.263 112.32 13.3551 111.942 14.4519C110.651 18.1844 109.389 21.9435 108.003 25.4724C107.865 25.7875 107.725 26.0936 107.582 26.3899C107.565 26.3548 107.546 26.319 107.528 26.2832C106.508 23.5373 105.716 20.273 104.872 17.1797C104.003 13.8418 103.034 10.7507 101.971 7.93118C101.599 6.98363 101.21 6.07789 100.818 5.18255C100.481 4.41473 100.119 3.73568 99.7327 3.15112C99.1124 2.19433 98.3968 1.68068 97.633 1.64412C96.9705 1.64005 96.2841 2.03225 95.6157 2.79683C94.991 3.54227 94.3822 4.471 93.8007 5.56575C93.1723 6.7958 92.5738 8.1725 92.0133 9.67722C91.6728 10.5417 91.3385 11.4269 91.015 12.3265C89.8275 15.6375 88.6618 18.9757 87.4165 22.1565C87.1139 22.8632 86.8108 23.5592 86.4937 24.2175C86.146 23.1128 85.8403 21.923 85.5318 20.737C85.1759 19.3738 84.838 17.9825 84.487 16.6144C84.1546 15.3217 83.8166 14.0239 83.4374 12.8149C83.3185 12.4378 83.1978 12.0599 83.0791 11.6822C82.7567 10.7164 82.4053 9.83354 82.0275 9.04009C81.7874 8.56946 81.5221 8.19546 81.2369 7.92561C81.0519 7.65562 80.8511 7.45799 80.6387 7.33683C79.8863 6.76017 79.0567 6.96087 78.2329 7.23188C77.6953 7.47474 77.1554 7.89087 76.6239 8.47213C76.1425 8.9477 75.6649 9.49617 75.1934 10.1151C74.3699 11.228 73.5592 12.463 72.765 13.8141C72.0998 14.9115 71.4355 16.0191 70.7852 17.1715C69.5656 19.3323 68.3568 21.5218 67.1124 23.5812C66.7856 24.0606 66.4604 24.5193 66.1244 24.9193C65.9151 24.2335 65.7223 23.5049 65.5472 22.7369C64.7186 18.8457 63.8938 14.9542 62.9558 11.242C62.6089 9.86996 62.2263 8.58361 61.81 7.39076C61.3982 6.15303 60.8915 5.19865 60.3151 4.57492C59.6185 3.8765 58.8367 3.69944 58.0314 4.05772C57.4524 4.3488 56.8721 4.78683 56.2976 5.36638C55.6454 5.99784 55.0058 6.85158 54.3942 7.90726C53.7058 9.08226 53.0358 10.3721 52.3884 11.7683C51.5634 13.4855 50.802 15.4433 50.0346 17.3119C49.3246 19.038 48.6199 20.7751 47.9098 22.5017C47.1407 24.3701 46.371 26.2398 45.592 28.0832C45.1526 29.1158 44.7124 30.149 44.2707 31.1719C43.9334 31.9574 43.5948 32.7357 43.2423 33.4727C43.0022 31.7144 42.8503 29.8511 42.6532 28.0467C42.4114 25.7354 42.1121 23.5071 41.7573 21.3762C41.3768 19.219 40.9166 17.2174 40.3826 15.3975C40.1654 14.6656 39.9324 13.9751 39.6846 13.3288C39.3378 12.3691 38.9471 11.5437 38.5191 10.8666C38.1288 10.274 37.7009 9.85139 37.2463 9.6094C36.9468 9.42739 36.6367 9.32267 36.3193 9.29634C35.8813 9.29028 35.4355 9.39462 34.9867 9.60821C34.4686 9.85123 33.9487 10.2557 33.4367 10.8143C32.8672 11.3781 32.3041 12.058 31.7522 12.848C29.801 15.5808 28.0139 19.2096 26.2635 22.7339C25.642 23.9839 25.0246 25.2503 24.4067 26.5095C23.7523 27.8362 23.0927 29.1765 22.4017 30.3813C22.3759 30.2892 22.3504 30.1949 22.326 30.1C21.9786 28.2968 21.7109 26.3878 21.4069 24.5232C21.1157 22.7288 20.8135 20.9482 20.5071 19.1721C20.2284 17.552 19.9391 15.9175 19.6093 14.366C19.3163 12.8113 18.967 11.3708 18.5657 10.0624C18.2449 9.07815 17.8394 8.34635 17.3748 7.91342C16.7326 7.38752 16.03 7.26928 15.3086 7.56563C14.1646 8.15311 13.0189 9.11365 11.8945 10.428C11.2892 11.0837 10.6994 11.8301 10.1048 12.5654C9.24336 13.6325 8.40451 14.8043 7.56037 15.9703C7.2252 16.433 6.90181 16.9654 6.57561 17.4631C6.06341 18.2455 5.53434 18.9962 5.03578 19.8477C4.63682 20.5246 4.23919 21.2141 3.8419 21.897C3.22697 22.9548 2.6615 24.1492 2.07216 25.3002C1.80504 25.7937 1.59271 26.5265 1.47889 27.3473C1.36506 28.1682 1.35842 29.0148 1.46029 29.7127C1.59776 30.592 1.85811 31.2178 2.19142 31.4701C2.55226 31.7309 2.95889 31.6341 3.35403 31.1933C3.43793 31.1168 3.52118 31.0391 3.60478 30.9614C4.1602 30.4801 4.71921 30.0152 5.26183 29.4181C5.7249 28.9074 6.18999 28.3962 6.6531 27.8849C7.37291 27.0913 8.0751 26.1335 8.7804 25.2553C10.6628 22.9079 12.5063 20.3762 14.4472 18.4855C14.693 18.294 14.9371 18.1289 15.1849 17.9896C15.2413 18.1934 15.2953 18.4016 15.347 18.6141C15.9073 21.7412 16.3979 24.9966 16.8165 28.3651C17.0647 30.2246 17.3183 32.0697 17.584 33.9064C17.7131 34.7731 17.8601 35.6085 18.0244 36.4093C18.1563 37.0436 18.2959 37.6679 18.4434 38.2775C18.8542 39.8015 19.4059 40.9499 20.0561 41.6345C20.7064 42.319 21.4378 42.5215 22.1943 42.2264C23.7683 41.6056 25.1537 38.8456 26.4243 36.2975C27.1217 34.8981 27.8013 33.4535 28.4863 32.014C29.9779 28.7912 31.5204 25.8053 33.1042 23.0749C33.6647 22.2282 34.2382 21.4967 34.8194 20.8869C35.0085 20.757 35.1929 20.6522 35.3825 20.5643C35.4109 20.5667 35.4397 20.5654 35.4683 20.5678C35.5264 20.6098 35.5833 20.656 35.6398 20.7056C35.7642 20.9158 35.8826 21.1397 35.9955 21.3821C36.4049 22.5226 36.7731 23.7793 37.0964 25.1402C37.5197 27.2548 37.8575 29.5347 38.1048 31.9465C38.2973 33.8362 38.4724 35.7435 38.6581 37.6422C38.8779 40.2461 39.3632 42.4611 40.061 44.0457C40.4248 44.8131 40.8483 45.3573 41.3123 45.6537C41.5718 45.8245 41.8417 45.9217 42.1186 45.9443C42.1512 45.947 42.1839 45.9497 42.2169 45.9495L42.2112 45.9556ZM43.7113 35.0984C43.6238 35.0143 43.5403 34.9096 43.4613 34.785C43.5448 34.8888 43.6282 34.9933 43.7113 35.0984ZM42.3222 34.9004C42.3961 34.834 42.4702 34.7677 42.5447 34.7017C42.4716 34.7746 42.3975 34.8408 42.3222 34.9004ZM22.4498 30.5621L22.4771 30.5383L22.4501 30.5633L22.4498 30.5621ZM66.2002 25.1681C66.2287 25.1604 66.2571 25.1538 66.2853 25.1473C66.2571 25.1562 66.229 25.164 66.2011 25.17L66.2002 25.1681ZM65.9872 25.0683C65.9666 25.0429 65.9462 25.0164 65.9265 24.9882L65.9894 25.0661L65.9874 25.066L65.9872 25.0683ZM66.0786 24.9629C66.0399 24.8733 66.0026 24.7798 65.9667 24.6822L66.0811 24.9595L66.0786 24.9629ZM87.1638 25.6995C87.1098 25.6402 87.0575 25.5748 87.007 25.5032L87.1638 25.6995ZM107.116 26.9898L107.258 26.9559C107.211 26.9716 107.163 26.983 107.116 26.9898ZM107.396 26.7503C107.377 26.7404 107.36 26.7307 107.342 26.7192L107.4 26.7435L107.396 26.7503ZM34.9838 20.6249C35.0273 20.6113 35.0704 20.6007 35.1135 20.5918L34.9848 20.6237L34.9838 20.6249ZM129.815 27.8086L129.987 27.7637C129.929 27.7861 129.872 27.8003 129.815 27.8086ZM129.546 27.7836C129.491 27.766 129.437 27.7419 129.382 27.7108L129.547 27.7837L129.546 27.7836ZM129.685 27.7358L129.911 27.5355C129.836 27.6122 129.76 27.6789 129.685 27.7358ZM15.3009 18.085L15.2473 17.9546L15.2495 17.9548C15.2671 17.9976 15.2843 18.0417 15.3008 18.0868L15.3009 18.085ZM14.9711 17.9449C15.0331 17.9228 15.0944 17.9077 15.1551 17.9008L14.9711 17.9449ZM148.979 27.3091C148.944 27.2967 148.908 27.2826 148.873 27.2649C148.908 27.2793 148.944 27.294 148.979 27.3091ZM149.144 27.2535C149.092 27.1964 149.042 27.1331 148.993 27.0636C149.044 27.1269 149.095 27.1903 149.146 27.2537L149.144 27.2535ZM193.37 30.5419L193.48 30.5143C193.443 30.5266 193.407 30.5361 193.37 30.5419ZM193.869 30.2625L193.867 30.2581L193.922 30.2094C193.904 30.2281 193.887 30.2455 193.869 30.2642L193.869 30.2625ZM193.684 30.12C193.672 30.1054 193.66 30.0896 193.648 30.0738L193.684 30.1188L193.684 30.12ZM172.736 28.2365C172.705 28.202 172.675 28.1646 172.646 28.1255L172.736 28.2365ZM171.528 27.7453L171.651 27.7152C171.61 27.7296 171.57 27.74 171.528 27.7453ZM78.8348 19.979L78.6119 19.7014C78.6888 19.7823 78.7631 19.8754 78.8348 19.979ZM78.8902 19.6795L78.7651 19.6247C78.807 19.6406 78.8488 19.6583 78.8902 19.6795ZM194.492 28.3683C194.599 28.1009 194.708 27.8365 194.815 27.5727L194.492 28.3683ZM58.6022 14.1564C58.4965 14.1122 58.3896 14.0679 58.2852 14.0226C58.3939 14.0416 58.4999 14.0863 58.6022 14.1564ZM140.018 19.6738C140.166 19.3127 140.313 18.9504 140.46 18.5899C140.313 18.9498 140.166 19.3139 140.018 19.6738ZM96.3482 14.1315L96.2191 14.0759C96.2628 14.0907 96.3058 14.1097 96.3482 14.1315ZM165.453 15.8075C165.409 15.6973 165.364 15.5883 165.319 15.4788C165.366 15.5826 165.41 15.6916 165.453 15.8075ZM165.485 15.5108L165.26 15.2326C165.338 15.3125 165.413 15.4053 165.485 15.5108ZM184.893 17.0567L184.796 17.0157C184.829 17.0278 184.861 17.0411 184.893 17.0567ZM165.471 15.205C165.416 15.1827 165.36 15.1586 165.305 15.1322C165.361 15.151 165.416 15.1739 165.471 15.205ZM205.72 16.8913L205.629 16.6709L205.633 16.6665C205.663 16.7388 205.692 16.8133 205.72 16.8913ZM206.047 16.5847L205.796 16.4782L205.8 16.4744L205.802 16.4746C205.886 16.4943 205.968 16.5314 206.048 16.5859L206.047 16.5847ZM205.48 16.4835C205.493 16.4798 205.506 16.4773 205.518 16.4742L205.48 16.4835Z" fill="#09AFF4"/>
<path d="M22.5172 30.7452L22.5581 30.7355M22.2543 30.6246L22.235 30.6006M35.1175 20.5915L35.1213 20.5918M42.2112 45.9556C42.733 45.9453 43.2713 45.6554 43.7995 45.1004C45.0789 43.9507 46.1187 41.4374 47.104 39.0756C49.5505 33.2126 51.8621 27.0462 54.2266 20.9901C55.0302 18.9742 55.8832 17.1433 56.7741 15.5217C57.1226 15.0378 57.4769 14.6143 57.8347 14.254C57.9578 14.173 58.0782 14.1037 58.1995 14.0439L58.2125 14.0556C58.256 14.1308 58.2984 14.2088 58.3397 14.2915C58.8719 15.8173 59.3431 17.5118 59.7474 19.3544C60.246 21.7101 60.7076 24.1225 61.1509 26.5641C61.535 28.9071 61.9985 31.1026 62.5361 33.1258C62.7715 33.8455 63.0326 34.4921 63.3167 35.0588C63.536 35.4189 63.7675 35.7281 64.0095 35.9843C64.1488 36.1679 64.3019 36.283 64.4637 36.3257C65.0061 36.6373 65.5847 36.6618 66.1743 36.3982C66.6479 36.1589 67.1223 35.7958 67.5917 35.3137C68.3285 34.5672 69.0537 33.6267 69.7568 32.5057C70.5351 31.2845 71.3088 30.0482 72.0678 28.7527C73.2129 26.7957 74.3547 24.8385 75.5137 22.9442C76.2812 21.7678 77.0669 20.7483 77.8635 19.8953C78.0555 19.7597 78.2456 19.6446 78.4383 19.554L78.4417 19.5543C78.4698 19.6051 78.4978 19.6572 78.5255 19.7103C79.3541 22.1154 80.0982 24.7529 80.7506 27.5982C81.0775 28.9348 81.4067 30.2662 81.7568 31.561C82.0495 32.676 82.3748 33.7109 82.7303 34.6579C83.1371 35.7889 83.629 36.6533 84.183 37.2106C84.6132 37.6158 85.0767 37.8192 85.5586 37.8144C85.9596 37.8047 86.3699 37.6492 86.78 37.3514C87.1033 37.0966 87.4254 36.7956 87.745 36.4496C88.0504 36.0747 88.3492 35.6265 88.6378 35.1107C89.2405 34.1206 89.8182 32.9681 90.3611 31.673C91.0891 30.0064 91.7739 28.209 92.4502 26.4157C93.6739 23.1634 94.7711 19.6657 96.0113 16.4472C96.2738 15.8384 96.5448 15.2648 96.8231 14.729C97.1308 15.2684 97.4168 15.8652 97.7001 16.4854C98.1877 17.7571 98.6434 19.0783 99.0839 20.4597C99.618 22.1275 100.097 23.9148 100.577 25.6881C101.026 27.3538 101.477 29.0194 101.928 30.6848C102.137 31.4521 102.352 32.2157 102.582 32.941C103.163 34.7836 103.776 36.6193 104.589 37.883C104.849 38.2185 105.111 38.5393 105.374 38.8551C105.449 38.9151 105.525 38.9805 105.6 39.0452C105.894 39.1925 106.19 39.3232 106.488 39.4373C107.018 39.5159 107.569 39.3308 108.118 38.8896C108.426 38.6769 108.733 38.3786 109.034 37.9993C109.418 37.4967 109.792 36.9056 110.153 36.233C110.496 35.6167 110.824 34.9101 111.13 34.125C112.01 32.0005 112.86 29.7655 113.676 27.4295C114.35 25.474 115.01 23.4936 115.669 21.5126C116.358 19.4512 117.045 17.3712 117.779 15.3982L117.786 15.413C118.959 18.3596 120.055 21.501 121.139 24.6415C122.41 28.3161 123.589 32.2374 125.042 35.4975C125.429 36.3734 125.845 37.1517 126.286 37.8265C126.652 38.3588 127.033 38.8209 127.428 39.2107C127.822 39.5312 128.236 39.7328 128.662 39.8129C128.976 39.7898 129.29 39.7222 129.609 39.616C130.014 39.4248 130.42 39.1115 130.821 38.6814C131.529 37.8577 132.223 36.8591 132.894 35.6984C133.778 34.2189 134.635 32.5594 135.455 30.7362C137.226 26.9274 138.848 22.6655 140.489 18.5278C140.768 17.8493 141.048 17.1791 141.338 16.5382C141.465 17.0574 141.585 17.5902 141.704 18.1205C142.426 21.5694 143.076 25.1276 143.809 28.5556C144.076 29.799 144.347 31.0281 144.63 32.238C144.844 33.129 145.079 33.9718 145.334 34.7626C145.684 35.8862 146.11 36.7929 146.596 37.4469C146.82 37.7993 147.063 38.0708 147.32 38.2567C147.656 38.4974 148.009 38.6155 148.374 38.6085C149.017 38.5564 149.677 38.1725 150.324 37.4746C150.833 36.9835 151.337 36.4129 151.835 35.7655C153.75 33.2069 155.625 30.2659 157.444 26.9684C159.163 23.916 160.858 20.7433 162.624 17.8722C163.237 16.9133 163.867 16.0838 164.505 15.3916C164.683 15.2678 164.855 15.1684 165.032 15.0866C165.056 15.0886 165.081 15.0906 165.105 15.0926L165.132 15.1144C165.151 15.1461 165.169 15.1766 165.187 15.2112C165.408 15.8727 165.61 16.5841 165.793 17.3409C166.085 18.9169 166.341 20.5572 166.563 22.2548C166.789 23.9604 166.982 25.7077 167.204 27.4177C167.597 30.4616 168.026 33.5325 168.818 35.9864C169.17 37.0629 169.615 37.8627 170.124 38.3352C170.381 38.5944 170.657 38.7474 170.944 38.7903C171.301 38.8159 171.666 38.7558 172.033 38.6105C172.314 38.4083 172.594 38.1711 172.869 37.8998C173.132 37.6124 173.39 37.2747 173.643 36.8894C174.002 36.3547 174.35 35.7646 174.701 35.1914C176.125 32.7778 177.513 30.1302 178.856 27.2653C180.27 24.3339 181.636 21.2068 183.151 18.6202C183.501 18.1022 183.856 17.6346 184.216 17.2197C184.299 17.1592 184.382 17.1051 184.466 17.0553C185.314 19.487 185.942 22.3905 186.59 25.1862C187.219 27.8863 187.841 30.613 188.561 33.1567C189.372 36.0143 190.282 38.8405 191.605 40.3668C192.05 40.8342 192.53 41.1112 193.03 41.1906C193.32 41.1411 193.61 41.0575 193.899 40.9435C194.18 40.7218 194.46 40.4798 194.739 40.2183C195.174 39.6499 195.599 38.9703 196.006 38.1892C196.421 37.3471 196.819 36.4239 197.197 35.4286C198.167 33.0272 199.11 30.5692 200.076 28.1598C200.763 26.5211 201.45 24.8772 202.165 23.3071C203.118 21.1386 204.111 19.142 205.135 17.3334C205.29 17.1096 205.443 16.9064 205.6 16.717C206.138 18.4099 206.575 20.3299 207.03 22.1733C207.484 24.0166 207.936 25.8562 208.412 27.6529C209.164 30.4861 209.966 33.3034 211.001 35.5271C211.383 36.4093 211.817 37.1069 212.293 37.6003C212.534 37.872 212.796 38.0306 213.07 38.0714C213.165 38.1088 213.263 38.1411 213.36 38.1786C213.617 38.1429 213.876 38.0678 214.137 37.9535C214.387 37.7434 214.635 37.5214 214.88 37.2695C215.193 36.8944 215.49 36.3589 215.754 35.6936C216.141 34.763 216.507 33.7525 216.845 32.674C218.114 28.6287 219.287 24.3647 220.354 19.9228C220.862 17.8655 221.318 15.76 221.772 13.6514C221.987 12.644 222.18 11.6148 222.409 10.6239C222.75 9.14663 223.085 7.67362 223.445 6.21688C223.494 5.95543 223.511 5.67217 223.492 5.42165C223.473 5.17113 223.42 4.97101 223.343 4.85974C223.248 4.69347 223.128 4.64006 223.004 4.70831C222.879 4.77655 222.757 4.96233 222.657 5.23501C221.913 7.52251 221.128 9.68488 220.313 11.8294C219.567 13.7932 218.79 15.6959 218.026 17.6192C216.679 20.998 215.343 24.4079 213.996 27.7862C213.94 27.6733 213.883 27.5581 213.828 27.4399C212.584 24.223 211.644 20.3551 210.709 16.5449C210.341 15.0482 209.98 13.5373 209.598 12.0637C209.22 10.6053 208.851 9.08423 208.296 7.98917C207.968 7.32273 207.587 6.85628 207.171 6.61095C206.507 6.23168 205.783 6.35477 205.063 6.9695C203.475 8.27065 202.12 11.0721 200.792 13.6942C200.065 15.1302 199.38 16.7513 198.69 18.308C197.397 21.2287 196.155 24.2844 194.914 27.3425C194.528 28.2666 194.145 29.1897 193.734 30.0307C193.612 29.8076 193.495 29.5726 193.38 29.3247C192.089 25.9011 191.166 21.6731 190.22 17.6036C189.753 15.5983 189.279 13.6073 188.766 11.6822C188.403 10.2722 187.977 9.02124 187.493 7.95251C187.376 7.66964 187.245 7.4336 187.102 7.24886C186.944 7.04894 186.786 6.85489 186.628 6.65554C186.385 6.36678 186.118 6.20879 185.837 6.18801C185.098 5.92946 184.313 6.14702 183.534 6.82624C181.827 8.20571 180.292 10.9532 178.868 13.8176C178.118 15.3251 177.386 16.8979 176.642 18.4212C175.209 21.4057 173.74 24.2107 172.239 26.8256C171.623 23.4995 171.267 19.8289 170.796 16.3249C170.524 14.2974 170.188 12.3767 169.791 10.5825C169.58 9.62871 169.344 8.72822 169.086 7.88622C168.914 7.359 168.727 6.87644 168.525 6.44218C168.246 5.8181 167.933 5.31153 167.594 4.93337C166.563 3.64639 165.23 3.78196 164.003 4.73485C162.278 6.07143 160.734 8.69287 159.209 11.2644C158.486 12.4849 157.776 13.7607 157.066 15.0313C155.7 17.4693 154.339 19.9118 152.943 22.2178C151.728 24.1441 150.481 25.8091 149.214 27.196C148.729 25.7432 148.302 24.1359 147.938 22.3936C147.252 19.0956 146.603 15.7456 145.907 12.4662C145.508 10.4366 145.048 8.53448 144.529 6.77637C144.375 6.31277 144.208 5.88917 144.027 5.50877C143.85 5.07399 143.636 4.76182 143.399 4.58918C143.121 4.20813 142.809 3.99923 142.479 3.97328C142.118 3.97339 141.751 4.06958 141.382 4.26077C140.664 4.64288 139.994 5.79962 139.374 6.82683C138.95 7.58032 138.541 8.42272 138.151 9.3452C136.821 12.3114 135.602 15.579 134.292 18.6006C133.001 21.6633 131.639 24.436 130.223 26.884C130.024 27.1758 129.824 27.4509 129.619 27.7067L129.568 27.6593C129.166 27.0762 128.786 26.4011 128.431 25.639C127.306 22.7892 126.294 19.689 125.255 16.6488C124.095 13.2572 122.902 9.90727 121.644 6.74302C121.195 5.51043 120.698 4.42405 120.159 3.49687C119.647 2.66099 119.046 2.23007 118.403 2.23826C117.891 2.23861 117.362 2.53667 116.845 3.11527C116.423 3.65119 116.009 4.26957 115.607 4.96523C115.425 5.2994 115.249 5.66512 115.079 6.05978C114.72 6.85408 114.386 7.73337 114.046 8.57366C113.708 9.40414 113.399 10.3007 113.084 11.1822C112.698 12.263 112.32 13.3551 111.942 14.4519C110.651 18.1844 109.389 21.9435 108.003 25.4724C107.865 25.7875 107.725 26.0936 107.582 26.3899C107.565 26.3548 107.546 26.319 107.528 26.2832C106.508 23.5373 105.716 20.273 104.872 17.1797C104.003 13.8418 103.034 10.7507 101.971 7.93118C101.599 6.98363 101.21 6.07789 100.818 5.18255C100.481 4.41472 100.119 3.73568 99.7327 3.15112C99.1124 2.19433 98.3968 1.68068 97.633 1.64411C96.9705 1.64005 96.2841 2.03225 95.6157 2.79683C94.991 3.54227 94.3822 4.471 93.8007 5.56574C93.1723 6.79579 92.5738 8.17251 92.0133 9.67722C91.6728 10.5417 91.3385 11.4269 91.015 12.3265C89.8275 15.6375 88.6618 18.9757 87.4165 22.1565C87.1138 22.8632 86.8108 23.5592 86.4937 24.2175C86.146 23.1128 85.8403 21.923 85.5318 20.737C85.1759 19.3738 84.8379 17.9825 84.487 16.6144C84.1546 15.3217 83.8166 14.0239 83.4374 12.8149C83.3185 12.4378 83.1978 12.0599 83.0791 11.6822C82.7567 10.7164 82.4053 9.83354 82.0275 9.04009C81.7874 8.56947 81.5221 8.19546 81.2369 7.92561C81.0519 7.65562 80.8511 7.45799 80.6387 7.33683C79.8863 6.76017 79.0567 6.96087 78.2329 7.23188C77.6953 7.47474 77.1554 7.89087 76.6239 8.47213C76.1425 8.94769 75.6649 9.49617 75.1934 10.1151C74.3699 11.228 73.5592 12.463 72.765 13.8141C72.0998 14.9115 71.4355 16.0191 70.7852 17.1715C69.5656 19.3323 68.3568 21.5218 67.1124 23.5812C66.7856 24.0606 66.4604 24.5193 66.1244 24.9193C65.9151 24.2335 65.7223 23.5049 65.5472 22.7369C64.7186 18.8457 63.8938 14.9542 62.9558 11.242C62.6089 9.86996 62.2263 8.58361 61.81 7.39076C61.3982 6.15303 60.8915 5.19865 60.3151 4.57492C59.6185 3.8765 58.8367 3.69944 58.0314 4.05772C57.4524 4.3488 56.8721 4.78683 56.2976 5.36638C55.6454 5.99783 55.0058 6.85158 54.3942 7.90726C53.7058 9.08226 53.0358 10.3721 52.3884 11.7683C51.5635 13.4855 50.802 15.4433 50.0346 17.3119C49.3246 19.038 48.6199 20.7751 47.9098 22.5017C47.1407 24.3701 46.371 26.2398 45.592 28.0832C45.1526 29.1158 44.7124 30.149 44.2707 31.1719C43.9334 31.9574 43.5948 32.7357 43.2423 33.4727C43.0022 31.7144 42.8503 29.8511 42.6532 28.0467C42.4114 25.7354 42.1121 23.5071 41.7573 21.3762C41.3768 19.219 40.9166 17.2174 40.3826 15.3975C40.1653 14.6656 39.9324 13.9751 39.6846 13.3288C39.3378 12.3691 38.9472 11.5437 38.5191 10.8666C38.1288 10.274 37.7009 9.85139 37.2463 9.6094C36.9468 9.42739 36.6367 9.32267 36.3193 9.29634C35.8813 9.29028 35.4355 9.39462 34.9867 9.60821C34.4686 9.85122 33.9487 10.2557 33.4367 10.8143C32.8672 11.3781 32.3041 12.058 31.7522 12.848C29.801 15.5808 28.0139 19.2096 26.2635 22.7339C25.642 23.9839 25.0246 25.2503 24.4067 26.5095C23.7522 27.8362 23.0927 29.1765 22.4017 30.3813C22.3759 30.2892 22.3504 30.1949 22.326 30.1C21.9786 28.2968 21.7109 26.3878 21.4069 24.5232C21.1157 22.7288 20.8135 20.9482 20.5071 19.1721C20.2284 17.552 19.9391 15.9175 19.6093 14.366C19.3163 12.8113 18.967 11.3708 18.5657 10.0624C18.2449 9.07815 17.8394 8.34635 17.3748 7.91342C16.7326 7.38752 16.03 7.26928 15.3086 7.56563C14.1646 8.15312 13.0189 9.11365 11.8945 10.428C11.2892 11.0837 10.6994 11.8301 10.1048 12.5654C9.24335 13.6325 8.40451 14.8043 7.56037 15.9703C7.2252 16.433 6.90181 16.9654 6.57561 17.4631C6.06342 18.2455 5.53434 18.9962 5.03578 19.8477C4.63682 20.5246 4.23918 21.2141 3.8419 21.897C3.22698 22.9548 2.66151 24.1492 2.07216 25.3002C1.80505 25.7938 1.59272 26.5265 1.47889 27.3473C1.36506 28.1682 1.35841 29.0148 1.46029 29.7127C1.59775 30.592 1.85811 31.2178 2.19142 31.4701C2.55226 31.7309 2.9589 31.6341 3.35403 31.1933C3.43794 31.1168 3.52117 31.0391 3.60478 30.9614C4.16021 30.4801 4.71922 30.0152 5.26183 29.4181C5.7249 28.9074 6.18998 28.3962 6.6531 27.8849C7.37291 27.0913 8.0751 26.1335 8.7804 25.2553C10.6628 22.9079 12.5063 20.3762 14.4472 18.4855C14.693 18.294 14.9371 18.1289 15.1849 17.9896C15.2413 18.1934 15.2954 18.4016 15.347 18.6141C15.9073 21.7412 16.3979 24.9966 16.8165 28.3651C17.0647 30.2246 17.3183 32.0697 17.584 33.9064C17.7131 34.7731 17.8601 35.6085 18.0244 36.4093C18.1563 37.0436 18.2959 37.6679 18.4434 38.2775C18.8542 39.8015 19.4059 40.9499 20.0561 41.6345C20.7064 42.319 21.4378 42.5215 22.1943 42.2264C23.7683 41.6056 25.1537 38.8456 26.4243 36.2975C27.1217 34.8981 27.8013 33.4535 28.4863 32.014C29.978 28.7912 31.5204 25.8053 33.1042 23.0749C33.6647 22.2282 34.2382 21.4967 34.8194 20.8869C35.0085 20.757 35.1929 20.6522 35.3825 20.5643C35.411 20.5667 35.4397 20.5654 35.4683 20.5678C35.5264 20.6098 35.5832 20.656 35.6398 20.7056C35.7642 20.9158 35.8826 21.1397 35.9955 21.3821C36.4049 22.5226 36.7731 23.7794 37.0964 25.1402C37.5197 27.2548 37.8575 29.5347 38.1048 31.9465C38.2973 33.8362 38.4724 35.7435 38.6581 37.6422C38.8779 40.2461 39.3632 42.4611 40.061 44.0457C40.4248 44.8131 40.8483 45.3573 41.3123 45.6537C41.5718 45.8245 41.8417 45.9217 42.1186 45.9443C42.1512 45.947 42.1839 45.9497 42.2169 45.9495L42.2112 45.9556ZM43.7113 35.0984C43.6238 35.0143 43.5403 34.9096 43.4613 34.785C43.5448 34.8888 43.6282 34.9933 43.7113 35.0984ZM42.3222 34.9004C42.3961 34.834 42.4702 34.7677 42.5447 34.7017C42.4716 34.7746 42.3975 34.8408 42.3222 34.9004ZM22.4498 30.5621L22.4771 30.5383L22.4501 30.5633L22.4498 30.5621ZM66.2002 25.1681C66.2287 25.1604 66.2571 25.1538 66.2853 25.1473C66.2571 25.1562 66.229 25.164 66.2011 25.17L66.2002 25.1681ZM65.9872 25.0683C65.9666 25.0429 65.9462 25.0164 65.9265 24.9882L65.9894 25.0661L65.9874 25.066L65.9872 25.0683ZM66.0786 24.9629C66.0399 24.8733 66.0026 24.7798 65.9667 24.6822L66.0811 24.9595L66.0786 24.9629ZM87.1638 25.6995C87.1098 25.6402 87.0575 25.5748 87.007 25.5032L87.1638 25.6995ZM107.116 26.9898L107.258 26.9559C107.211 26.9716 107.163 26.983 107.116 26.9898ZM107.396 26.7503C107.377 26.7404 107.36 26.7307 107.342 26.7192L107.4 26.7435L107.396 26.7503ZM34.9838 20.6249C35.0273 20.6113 35.0704 20.6007 35.1135 20.5918L34.9848 20.6237L34.9838 20.6249ZM129.815 27.8086L129.987 27.7637C129.929 27.7861 129.872 27.8003 129.815 27.8086ZM129.546 27.7836C129.491 27.766 129.437 27.7419 129.382 27.7108L129.547 27.7837L129.546 27.7836ZM129.685 27.7358L129.911 27.5355C129.836 27.6122 129.76 27.6789 129.685 27.7358ZM15.3009 18.085L15.2473 17.9546L15.2495 17.9548C15.2671 17.9976 15.2843 18.0417 15.3008 18.0868L15.3009 18.085ZM14.9711 17.9449C15.0331 17.9228 15.0944 17.9077 15.1551 17.9008L14.9711 17.9449ZM148.979 27.3091C148.944 27.2967 148.908 27.2826 148.873 27.2649C148.908 27.2793 148.944 27.294 148.979 27.3091ZM149.144 27.2535C149.092 27.1964 149.042 27.1331 148.993 27.0636C149.044 27.1269 149.095 27.1903 149.146 27.2537L149.144 27.2535ZM193.37 30.5419L193.48 30.5143C193.443 30.5266 193.407 30.5361 193.37 30.5419ZM193.869 30.2625L193.867 30.2581L193.922 30.2094C193.904 30.2281 193.887 30.2455 193.869 30.2642L193.869 30.2625ZM193.684 30.12C193.672 30.1054 193.66 30.0896 193.648 30.0738L193.684 30.1188L193.684 30.12ZM172.736 28.2365C172.705 28.202 172.675 28.1646 172.646 28.1255L172.736 28.2365ZM171.528 27.7453L171.651 27.7152C171.61 27.7296 171.57 27.74 171.528 27.7453ZM78.8348 19.979L78.6119 19.7014C78.6888 19.7823 78.7631 19.8754 78.8348 19.979ZM78.8902 19.6795L78.7651 19.6247C78.807 19.6406 78.8488 19.6583 78.8902 19.6795ZM194.492 28.3683C194.599 28.1009 194.708 27.8365 194.815 27.5727L194.492 28.3683ZM58.6022 14.1564C58.4965 14.1122 58.3896 14.0679 58.2852 14.0226C58.3939 14.0416 58.4999 14.0863 58.6022 14.1564ZM140.018 19.6738C140.166 19.3127 140.313 18.9504 140.46 18.5899C140.313 18.9498 140.166 19.3139 140.018 19.6738ZM96.3482 14.1315L96.2191 14.0759C96.2628 14.0907 96.3058 14.1097 96.3482 14.1315ZM165.453 15.8075C165.409 15.6973 165.364 15.5883 165.319 15.4788C165.366 15.5826 165.41 15.6916 165.453 15.8075ZM165.485 15.5108L165.26 15.2326C165.338 15.3125 165.413 15.4053 165.485 15.5108ZM184.893 17.0567L184.796 17.0157C184.829 17.0278 184.861 17.0411 184.893 17.0567ZM165.471 15.205C165.416 15.1827 165.36 15.1586 165.305 15.1322C165.361 15.151 165.416 15.1739 165.471 15.205ZM205.72 16.8913L205.629 16.6709L205.633 16.6665C205.663 16.7388 205.692 16.8133 205.72 16.8913ZM206.047 16.5847L205.796 16.4782L205.8 16.4744L205.802 16.4746C205.886 16.4943 205.968 16.5314 206.048 16.5859L206.047 16.5847ZM205.48 16.4835C205.493 16.4798 205.506 16.4773 205.518 16.4742L205.48 16.4835Z" stroke="#09AFF4" stroke-width="1.8062"/>
</svg>
